<?xml version="1.0" standalone="no"?>
<!DOCTYPE svg PUBLIC "-//W3C//DTD SVG 20010904//EN"
 "http://www.w3.org/TR/2001/REC-SVG-20010904/DTD/svg10.dtd">
<svg version="1.0" xmlns="http://www.w3.org/2000/svg"
 width="1000.000000pt" height="1000.000000pt" viewBox="0 0 1000.000000 1000.000000"
 preserveAspectRatio="xMidYMid meet">
<metadata>
Created by potrace 1.16, written by Peter Selinger 2001-2019
</metadata>
<g transform="translate(0.000000,1000.000000) scale(0.100000,-0.100000)"
fill="#000000" stroke="none">
<path d="M0 8795 l0 -1205 1205 0 1205 0 0 1205 0 1205 -1205 0 -1205 0 0
-1205z m2068 -3 l2 -862 -862 2 -863 3 -3 850 c-1 468 0 856 3 863 3 10 181
12 862 10 l858 -3 3 -863z"/>
<path d="M690 8795 l0 -515 515 0 515 0 0 515 0 515 -515 0 -515 0 0 -515z"/>
<path d="M2760 9830 l0 -170 345 0 345 0 0 -175 0 -175 -175 0 -175 0 0 -345
0 -345 175 0 175 0 0 175 0 175 170 0 170 0 0 -175 0 -175 520 0 520 0 0 520
0 520 170 0 170 0 0 170 0 170 -345 0 -345 0 0 -170 0 -170 -170 0 -170 0 0
-345 0 -345 -175 0 -175 0 0 345 0 345 -170 0 -170 0 0 170 0 170 -345 0 -345
0 0 -170z"/>
<path d="M6210 9830 l0 -170 -345 0 -345 0 0 -175 0 -175 -175 0 -175 0 0
-170 0 -170 175 0 175 0 0 -690 0 -690 -175 0 -175 0 0 345 0 345 -170 0 -170
0 0 -345 0 -345 -175 0 -175 0 0 345 0 345 -342 -2 -343 -3 -3 -172 -2 -173
-170 0 -170 0 0 -345 0 -345 170 0 170 0 0 -170 0 -170 -690 0 -690 0 0 170 0
170 -170 0 -170 0 0 -170 0 -170 170 0 170 0 0 -175 0 -175 -170 0 -170 0 0
-170 0 -170 170 0 170 0 0 170 0 170 175 0 175 0 0 -860 0 -860 -175 0 -175 0
0 170 0 170 -170 0 -170 0 0 175 0 175 170 0 170 0 0 170 0 170 -345 0 -345 0
0 -170 0 -170 -170 0 -170 0 0 170 0 170 -345 0 -345 0 0 345 0 345 515 0 515
0 0 345 0 345 -345 0 -345 0 0 -170 0 -170 -170 0 -170 0 0 170 0 170 -345 0
-345 0 0 -170 0 -170 170 0 170 0 0 -175 0 -175 -170 0 -170 0 0 -170 0 -170
170 0 170 0 2 -172 3 -173 173 -3 172 -2 0 -170 0 -170 345 0 345 0 0 -690 0
-690 170 0 170 0 2 -173 3 -172 173 -3 172 -2 0 -170 0 -170 170 0 170 0 0
-175 0 -175 -345 0 -345 0 0 175 0 175 -170 0 -170 0 0 170 0 170 -175 0 -175
0 0 690 0 690 -515 0 -515 0 0 -170 0 -170 170 0 170 0 2 -173 3 -172 172 -3
173 -2 0 -345 0 -345 -172 2 -173 3 -3 172 -2 173 -170 0 -170 0 0 -690 0
-690 345 0 345 0 0 515 0 515 170 0 170 0 0 -515 0 -515 175 0 175 0 0 170 0
170 170 0 170 0 0 -170 0 -170 345 0 345 0 0 170 0 170 175 0 175 0 0 -170 0
-170 170 0 170 0 0 -520 0 -520 -170 0 -170 0 0 -345 0 -345 170 0 170 0 0
-170 0 -170 -170 0 -170 0 0 -345 0 -345 345 0 345 0 0 345 0 345 170 0 170 0
0 170 0 170 173 2 172 3 3 172 2 173 170 0 170 0 0 170 0 170 -170 0 -170 0 0
-170 0 -170 -345 0 -345 0 -2 -173 -3 -172 -172 -3 -173 -2 0 345 0 345 173 2
172 3 3 343 2 342 170 0 170 0 0 -170 0 -170 520 0 520 0 0 170 0 170 170 0
170 0 0 -345 0 -345 -170 0 -170 0 0 -515 0 -515 345 0 345 0 0 -175 0 -175
170 0 170 0 0 175 0 175 -170 0 -170 0 0 170 0 170 690 0 690 0 0 -170 0 -170
170 0 170 0 0 170 0 170 -170 0 -170 0 0 175 0 175 1035 0 1035 0 0 170 0 170
-175 0 -175 0 0 175 0 175 175 0 175 0 0 345 0 345 345 0 345 0 0 170 0 170
-175 0 -175 0 0 175 0 175 -170 0 -170 0 0 170 0 170 345 0 345 0 0 -170 0
-170 170 0 170 0 0 170 0 170 -170 0 -170 0 -2 172 -3 173 -342 3 -343 2 0
170 0 170 170 0 170 0 0 345 0 345 175 0 175 0 0 -345 0 -345 170 0 170 0 0
865 0 865 -170 0 -170 0 0 -345 0 -345 -690 0 -690 0 0 170 0 170 -175 0 -175
0 0 345 0 345 345 0 345 0 0 175 0 175 -345 0 -345 0 0 170 0 170 -170 0 -170
0 0 -170 0 -170 170 0 170 0 0 -175 0 -175 -170 0 -170 0 0 -170 0 -170 -175
0 -175 0 0 345 0 345 -345 0 -345 0 0 -175 0 -175 -170 0 -170 0 0 -170 0
-170 -175 0 -175 0 0 345 0 345 175 0 175 0 0 170 0 170 -175 0 -175 0 2 518
3 517 518 3 517 2 0 170 0 170 170 0 170 0 0 345 0 345 -170 0 -170 0 -2 173
-3 172 -172 3 -173 2 0 170 0 170 -170 0 -170 0 0 -170z m340 -345 l0 -175
-170 0 -170 0 0 -170 0 -170 343 -2 342 -3 3 -172 2 -173 -345 0 -345 0 0 175
0 175 -345 0 -345 0 0 170 0 170 345 0 345 0 0 175 0 175 170 0 170 0 0 -175z
m-2410 -1725 l0 -170 170 0 170 0 0 -175 0 -175 175 0 175 0 0 175 0 175 170
0 170 0 0 -175 0 -175 175 0 175 0 0 -170 0 -170 -520 0 -520 0 0 170 0 170
-170 0 -170 0 0 175 0 175 -175 0 -175 0 0 170 0 170 175 0 175 0 0 -170z
m1030 -1380 l0 -170 -170 0 -170 0 0 -175 0 -175 170 0 170 0 0 -170 0 -170
-345 0 -345 0 0 -175 0 -175 345 0 345 0 0 -170 0 -170 175 0 175 0 0 170 0
170 170 0 170 0 0 -170 0 -170 175 0 175 0 0 170 0 170 170 0 170 0 0 175 0
175 345 0 345 0 0 170 0 170 -170 0 -170 0 0 175 0 175 -175 0 -175 0 0 170 0
170 175 0 175 0 0 -170 0 -170 170 0 170 0 0 -175 0 -175 175 0 175 0 0 -345
0 -345 345 0 345 0 0 -170 0 -170 170 0 170 0 0 170 0 170 175 0 175 0 0 -345
0 -345 -175 0 -175 0 0 -170 0 -170 175 0 175 0 0 -175 0 -175 -175 0 -175 0
0 -345 0 -345 -170 0 -170 0 -2 173 -3 172 -342 3 -343 2 -2 -172 -3 -173
-517 -3 -518 -2 0 -170 0 -170 -170 0 -170 0 0 170 0 170 -175 0 -175 0 0 175
0 175 -170 0 -170 0 0 345 0 345 -345 0 -345 0 0 -175 0 -175 170 0 170 0 0
-170 0 -170 -170 0 -170 0 0 170 0 170 -517 2 -518 3 -3 173 -2 172 520 0 520
0 0 170 0 170 -865 0 -865 0 0 -170 0 -170 175 0 175 0 0 -175 0 -175 -175 0
-175 0 0 -170 0 -170 690 0 690 0 0 -175 0 -175 175 0 175 0 0 -345 0 -345
-345 0 -345 0 0 175 0 175 -345 0 -345 0 0 170 0 170 -172 2 -173 3 -3 173 -2
172 -170 0 -170 0 0 170 0 170 -345 0 -345 0 0 175 0 175 -175 0 -175 0 2 343
3 342 343 3 342 2 0 -175 0 -175 175 0 175 0 0 175 0 175 170 0 170 0 2 343 3
342 343 3 342 2 0 170 0 170 345 0 345 0 2 173 3 172 173 3 172 2 0 170 0 170
170 0 170 0 0 -170z m-1720 -345 l0 -175 -175 0 -175 0 0 168 c0 93 3 172 7
175 3 4 82 7 175 7 l168 0 0 -175z m2760 -345 l0 -170 -345 0 -345 0 0 170 0
170 345 0 345 0 0 -170z m-690 -2760 l0 -170 170 0 170 0 0 -520 0 -520 345 0
345 0 0 -170 0 -170 -345 0 -345 0 0 170 0 170 -170 0 -170 0 0 -170 0 -170
-175 0 -175 0 0 170 0 170 175 0 175 0 0 520 0 520 -175 0 -175 0 0 170 0 170
175 0 175 0 0 -170z m2758 -687 l-3 -518 -517 -3 -518 -2 0 520 0 520 520 0
520 0 -2 -517z m-1728 -3 l0 -170 -170 0 -170 0 0 170 0 170 170 0 170 0 0
-170z"/>
<path d="M3790 5345 l0 -175 -170 0 -170 0 0 -170 0 -170 170 0 170 0 0 170 0
170 175 0 175 0 0 175 0 175 -175 0 -175 0 0 -175z"/>
<path d="M6550 5000 l0 -170 -170 0 -170 0 0 -175 0 -175 170 0 170 0 0 175 0
175 345 0 345 0 0 -175 0 -175 -170 0 -170 0 0 -170 0 -170 -345 0 -345 0 -2
-172 -3 -173 -172 -3 -173 -2 0 -170 0 -170 520 0 520 0 0 170 0 170 170 0
170 0 0 345 0 345 173 2 172 3 0 170 0 170 -172 3 -173 2 0 170 0 170 -345 0
-345 0 0 -170z"/>
<path d="M5520 4655 l0 -175 170 0 170 0 0 175 0 175 -170 0 -170 0 0 -175z"/>
<path d="M7930 4485 l0 -345 175 0 175 0 0 -175 0 -175 170 0 170 0 0 175 0
175 -170 0 -170 0 0 345 0 345 -175 0 -175 0 0 -345z"/>
<path d="M2070 4310 l0 -170 170 0 170 0 0 170 0 170 -170 0 -170 0 0 -170z"/>
<path d="M2760 3965 l0 -175 170 0 170 0 0 175 0 175 -170 0 -170 0 0 -175z"/>
<path d="M4140 2930 l0 -170 170 0 170 0 0 170 0 170 -170 0 -170 0 0 -170z"/>
<path d="M7590 2240 l0 -170 170 0 170 0 0 170 0 170 -170 0 -170 0 0 -170z"/>
<path d="M7590 8795 l0 -1205 1205 0 1205 0 0 1205 0 1205 -1205 0 -1205 0 0
-1205z m2065 0 l0 -860 -862 -3 -863 -2 0 858 c0 472 3 862 7 865 3 4 392 6
862 5 l856 -3 0 -860z"/>
<path d="M8280 8795 l0 -515 515 0 515 0 0 515 0 515 -515 0 -515 0 0 -515z"/>
<path d="M2760 7585 l0 -345 170 0 170 0 0 345 0 345 -170 0 -170 0 0 -345z"/>
<path d="M6210 7760 l0 -170 170 0 170 0 0 170 0 170 -170 0 -170 0 0 -170z"/>
<path d="M6900 7760 l0 -170 170 0 170 0 0 170 0 170 -170 0 -170 0 0 -170z"/>
<path d="M9660 7070 l0 -170 -345 0 -345 0 0 -345 0 -345 -175 0 -175 0 0
-175 0 -175 173 2 172 3 3 173 2 172 170 0 170 0 0 170 0 170 173 2 172 3 3
173 2 172 170 0 170 0 0 170 0 170 -170 0 -170 0 0 -170z"/>
<path d="M0 1205 l0 -1205 1205 0 1205 0 0 1205 0 1205 -1205 0 -1205 0 0
-1205z m2068 3 l-3 -863 -860 0 -860 0 -3 850 c-1 468 0 856 3 863 3 9 186 12
865 12 l860 0 -2 -862z"/>
<path d="M690 1205 l0 -515 515 0 515 0 0 515 0 515 -515 0 -515 0 0 -515z"/>
<path d="M9310 1895 l0 -175 175 0 175 0 0 -170 0 -170 -175 0 -175 0 0 -175
0 -175 -170 0 -170 0 0 -170 0 -170 -175 0 -175 0 0 170 0 170 -345 0 -345 0
0 -170 0 -170 -170 0 -170 0 -2 -173 -3 -172 -342 -3 -343 -2 0 -170 0 -170
1035 0 1035 0 0 170 0 170 170 0 170 0 0 175 0 175 173 -2 172 -3 3 -173 2
-172 170 0 170 0 0 865 0 865 -345 0 -345 0 0 -175z m-690 -1380 l0 -175 -170
0 -170 0 0 175 0 175 170 0 170 0 0 -175z"/>
<path d="M4140 345 l0 -345 345 0 345 0 0 170 0 170 -172 2 -173 3 -3 173 -2
172 -170 0 -170 0 0 -345z"/>
<path d="M6210 515 l0 -175 170 0 170 0 0 175 0 175 -170 0 -170 0 0 -175z"/>
</g>
</svg>
