<?xml version="1.0" encoding="UTF-8" standalone="no"?>
<!-- Created with Inkscape (http://www.inkscape.org/) -->

<svg
   version="1.1"
   id="svg2"
   xml:space="preserve"
   width="247.4278"
   height="247.41153"
   viewBox="0 0 247.4278 247.41153"
   sodipodi:docname="erc.svg"
   inkscape:version="1.1.2 (0a00cf5339, 2022-02-04)"
   xmlns:inkscape="http://www.inkscape.org/namespaces/inkscape"
   xmlns:sodipodi="http://sodipodi.sourceforge.net/DTD/sodipodi-0.dtd"
   xmlns="http://www.w3.org/2000/svg"
   xmlns:svg="http://www.w3.org/2000/svg"><defs
     id="defs6"><linearGradient
       x1="0"
       y1="0"
       x2="1"
       y2="0"
       gradientUnits="userSpaceOnUse"
       gradientTransform="matrix(84.15628,0,0,-84.15628,150.27864,176.04298)"
       spreadMethod="pad"
       id="linearGradient26"><stop
         style="stop-opacity:1;stop-color:#f1511b"
         offset="0"
         id="stop22" /><stop
         style="stop-opacity:1;stop-color:#ffffff"
         offset="1"
         id="stop24" /></linearGradient><clipPath
       clipPathUnits="userSpaceOnUse"
       id="clipPath36"><path
         d="M 0,283.465 H 283.465 V 0 H 0 Z"
         id="path34" /></clipPath></defs><sodipodi:namedview
     id="namedview4"
     pagecolor="#ffffff"
     bordercolor="#666666"
     borderopacity="1.0"
     inkscape:pageshadow="2"
     inkscape:pageopacity="0.0"
     inkscape:pagecheckerboard="0"
     showgrid="false"
     inkscape:zoom="0.47558781"
     inkscape:cx="190.29083"
     inkscape:cy="-254.422"
     inkscape:window-width="1866"
     inkscape:window-height="1146"
     inkscape:window-x="1945"
     inkscape:window-y="25"
     inkscape:window-maximized="1"
     inkscape:current-layer="g18" /><g
     id="g8"
     inkscape:groupmode="layer"
     inkscape:label="LOGO_ERC"
     transform="matrix(1.3333333,0,0,-1.3333333,-65.152394,359.15959)"><g
       id="g10"><g
         id="g12"><g
           id="g18"><g
             id="g20"><path
               d="m 192.093,252.554 c -0.507,-0.73 -0.325,-1.732 0.409,-2.24 v 0 c 0.732,-0.507 1.733,-0.326 2.241,0.408 v 0 c 0.508,0.728 0.326,1.732 -0.405,2.24 v 0 c -0.281,0.194 -0.601,0.288 -0.918,0.288 v 0 c -0.51,0 -1.011,-0.242 -1.327,-0.696 m 1.148,-11.07 c -0.796,-0.773 -0.811,-2.052 -0.035,-2.844 v 0 c 0.78,-0.795 2.055,-0.811 2.847,-0.035 v 0 c 0.792,0.776 0.809,2.054 0.032,2.85 v 0 c -0.392,0.403 -0.913,0.607 -1.435,0.607 v 0 c -0.507,0 -1.016,-0.192 -1.409,-0.578 m 12.377,0.099 c -0.636,-0.622 -0.647,-1.641 -0.029,-2.279 v 0 c 0.622,-0.638 1.642,-0.651 2.279,-0.03 v 0 c 0.639,0.622 0.651,1.641 0.035,2.281 v 0 c -0.317,0.323 -0.736,0.485 -1.156,0.485 v 0 c -0.407,0 -0.814,-0.152 -1.129,-0.457 m -25.49,-1.542 c -0.964,-1.44 -0.584,-3.394 0.861,-4.357 v 0 c 1.435,-0.969 3.388,-0.588 4.361,0.856 v 0 c 0.963,1.443 0.583,3.392 -0.859,4.36 v 0 c -0.539,0.361 -1.148,0.534 -1.751,0.534 v 0 c -1.013,0 -2.007,-0.489 -2.612,-1.393 m 11.779,-8.853 c -1.235,-1.221 -1.239,-3.212 -0.023,-4.44 v 0 c 1.226,-1.236 3.211,-1.242 4.454,-0.021 v 0 c 1.227,1.22 1.236,3.21 0.017,4.445 v 0 c -0.616,0.619 -1.424,0.929 -2.232,0.929 v 0 c -0.801,0 -1.601,-0.304 -2.216,-0.913 m 12.624,-0.568 c -0.924,-0.615 -1.18,-1.863 -0.566,-2.79 v 0 c 0.617,-0.927 1.861,-1.181 2.791,-0.57 v 0 c 0.926,0.616 1.179,1.866 0.568,2.791 v 0 c -0.388,0.586 -1.03,0.904 -1.684,0.904 v 0 c -0.381,0 -0.767,-0.108 -1.109,-0.335 m -24.968,-2.063 c -1.301,-1.288 -1.311,-3.381 -0.026,-4.678 v 0 c 1.287,-1.301 3.374,-1.311 4.677,-0.023 v 0 c 1.298,1.282 1.307,3.378 0.022,4.674 v 0 c -0.647,0.655 -1.5,0.983 -2.353,0.983 v 0 c -0.839,0 -1.678,-0.318 -2.32,-0.956 m 37.034,-0.016 c -0.741,-0.491 -0.943,-1.491 -0.448,-2.232 v 0 c 0.486,-0.744 1.489,-0.945 2.232,-0.45 v 0 c 0.738,0.488 0.94,1.492 0.454,2.229 v 0 c -0.31,0.469 -0.822,0.723 -1.345,0.723 v 0 c -0.307,0 -0.618,-0.088 -0.893,-0.27 m -47.592,-4.662 c -1.201,-1.779 -0.733,-4.194 1.045,-5.391 v 0 c 1.777,-1.2 4.194,-0.728 5.392,1.051 v 0 c 1.199,1.779 0.726,4.189 -1.052,5.39 v 0 c -0.665,0.448 -1.42,0.663 -2.166,0.663 v 0 c -1.249,0 -2.475,-0.602 -3.219,-1.713 m 20.008,-3.824 c -1.524,-1.003 -1.948,-3.059 -0.944,-4.582 v 0 c 1.007,-1.524 3.055,-1.948 4.583,-0.941 v 0 c 1.525,1.005 1.948,3.058 0.94,4.583 v 0 c -0.634,0.963 -1.69,1.487 -2.765,1.488 v 0 c -0.625,0 -1.256,-0.177 -1.814,-0.548 m 13.216,-0.598 c -1.463,-0.94 -1.888,-2.884 -0.948,-4.344 v 0 c 0.933,-1.461 2.879,-1.887 4.343,-0.946 v 0 c 1.457,0.936 1.882,2.874 0.955,4.337 v 0 c -0.603,0.937 -1.62,1.448 -2.658,1.448 v 0 c -0.58,0 -1.167,-0.16 -1.692,-0.495 m -24.774,-1.609 c -1.51,-1.521 -1.51,-3.98 0.015,-5.493 v 0 c 1.521,-1.513 3.983,-1.508 5.488,0.013 v 0 c 1.518,1.522 1.512,3.978 -0.011,5.491 v 0 c -0.756,0.755 -1.748,1.133 -2.74,1.133 v 0 c -0.997,0 -1.994,-0.382 -2.752,-1.144 m -15.853,-3.015 c -1.371,-2.042 -0.821,-4.811 1.228,-6.181 v 0 c 2.041,-1.368 4.813,-0.818 6.186,1.229 v 0 c 1.367,2.046 0.816,4.814 -1.228,6.186 v 0 c -0.761,0.508 -1.621,0.751 -2.471,0.751 v 0 c -1.439,0 -2.851,-0.697 -3.715,-1.985 m 52.678,1.74 c -1.029,-0.41 -1.537,-1.582 -1.131,-2.618 v 0 c 0.415,-1.032 1.586,-1.538 2.621,-1.125 v 0 c 1.033,0.409 1.535,1.581 1.125,2.614 v 0 c -0.313,0.792 -1.072,1.271 -1.873,1.271 v 0 c -0.247,0 -0.498,-0.046 -0.742,-0.142 m 10.913,-3.413 c -0.822,-0.342 -1.207,-1.282 -0.873,-2.105 v 0 c 0.339,-0.824 1.278,-1.212 2.104,-0.875 v 0 c 0.821,0.341 1.214,1.284 0.872,2.104 v 0 c -0.255,0.623 -0.854,0.997 -1.488,0.998 v 0 c -0.205,0 -0.413,-0.04 -0.615,-0.122 m -40.161,-3.165 c -1.804,-1.17 -2.311,-3.576 -1.142,-5.375 v 0 c 1.168,-1.795 3.575,-2.306 5.367,-1.138 v 0 c 1.8,1.172 2.312,3.572 1.149,5.37 v 0 c -0.748,1.147 -1.995,1.77 -3.265,1.77 v 0 c -0.725,0 -1.457,-0.202 -2.109,-0.627 m 11.536,-0.057 c -1.691,-0.687 -2.506,-2.618 -1.814,-4.311 v 0 c 0.689,-1.69 2.617,-2.504 4.309,-1.813 v 0 c 1.694,0.686 2.507,2.615 1.81,4.309 v 0 c -0.52,1.283 -1.752,2.062 -3.057,2.062 v 0 c -0.416,0 -0.838,-0.079 -1.248,-0.247 m 12.231,-1.737 c -1.61,-0.669 -2.36,-2.511 -1.698,-4.108 v 0 c 0.661,-1.606 2.506,-2.364 4.114,-1.697 v 0 c 1.595,0.668 2.356,2.505 1.694,4.107 v 0 c -0.509,1.21 -1.678,1.938 -2.908,1.938 v 0 c -0.401,0 -0.809,-0.077 -1.202,-0.24 m -55.159,-2.284 c -1.854,-2.189 -1.588,-5.465 0.61,-7.321 v 0 c 2.185,-1.857 5.465,-1.584 7.319,0.611 v 0 c 1.855,2.188 1.579,5.466 -0.607,7.318 v 0 c -0.978,0.827 -2.171,1.231 -3.358,1.231 v 0 c -1.475,0 -2.939,-0.624 -3.964,-1.839 m 19.127,0.525 c -1.946,-1.506 -2.305,-4.302 -0.792,-6.251 v 0 c 1.504,-1.948 4.308,-2.303 6.256,-0.794 v 0 c 1.944,1.504 2.294,4.304 0.789,6.252 v 0 c -0.879,1.134 -2.194,1.728 -3.525,1.729 v 0 c -0.953,0 -1.914,-0.306 -2.728,-0.936 m 47.488,-3.492 c -1.088,-0.217 -1.794,-1.279 -1.57,-2.371 v 0 c 0.217,-1.089 1.273,-1.793 2.369,-1.576 v 0 c 1.089,0.218 1.8,1.281 1.574,2.37 v 0 c -0.188,0.959 -1.029,1.617 -1.97,1.617 v 0 c -0.133,0 -0.267,-0.013 -0.403,-0.04 m -30.029,-1.365 c -1.965,-0.851 -2.88,-3.132 -2.026,-5.102 v 0 c 0.849,-1.971 3.129,-2.879 5.105,-2.032 v 0 c 1.964,0.851 2.876,3.135 2.027,5.104 v 0 c -0.634,1.471 -2.063,2.349 -3.567,2.349 v 0 c -0.514,0 -1.036,-0.103 -1.539,-0.319 m 11.641,-2.655 c -1.79,-0.358 -2.952,-2.1 -2.594,-3.89 v 0 c 0.355,-1.795 2.099,-2.955 3.889,-2.596 v 0 c 1.793,0.356 2.954,2.101 2.597,3.894 v 0 c -0.315,1.568 -1.697,2.656 -3.241,2.656 v 0 c -0.214,0 -0.432,-0.021 -0.651,-0.064 m -36.982,-0.829 c -2.605,-1.196 -3.753,-4.281 -2.561,-6.887 v 0 c 1.2,-2.609 4.283,-3.758 6.89,-2.56 v 0 c 2.61,1.195 3.754,4.279 2.556,6.886 v 0 c -0.876,1.909 -2.758,3.035 -4.725,3.035 v 0 c -0.724,0 -1.459,-0.152 -2.16,-0.474 m 65.588,-0.838 c -0.875,-0.182 -1.426,-1.033 -1.239,-1.908 v 0 c 0.177,-0.869 1.032,-1.426 1.904,-1.24 v 0 c 0.869,0.184 1.426,1.036 1.243,1.907 v 0 c -0.156,0.756 -0.827,1.276 -1.572,1.276 v 0 c -0.111,0 -0.223,-0.011 -0.336,-0.035 m -16.956,-2.152 c -1.698,-0.356 -2.788,-2.022 -2.433,-3.72 v 0 c 0.354,-1.699 2.02,-2.785 3.726,-2.434 v 0 c 1.692,0.36 2.781,2.022 2.429,3.719 v 0 c -0.308,1.483 -1.619,2.502 -3.076,2.502 v 0 c -0.213,0 -0.429,-0.022 -0.646,-0.067 m -32.371,-1.138 c -2.347,-0.757 -3.628,-3.269 -2.868,-5.61 v 0 c 0.751,-2.344 3.26,-3.63 5.603,-2.874 v 0 c 2.343,0.755 3.631,3.268 2.88,5.611 v 0 c -0.613,1.888 -2.36,3.09 -4.242,3.09 v 0 c -0.455,0 -0.917,-0.07 -1.373,-0.217 m 12.757,-2.575 c -2.091,-0.481 -3.396,-2.572 -2.906,-4.66 v 0 c 0.486,-2.09 2.57,-3.389 4.664,-2.905 v 0 c 2.083,0.489 3.382,2.574 2.895,4.663 v 0 c -0.415,1.792 -2.005,3.005 -3.769,3.005 v 0 c -0.292,0 -0.588,-0.033 -0.884,-0.103 m 29.778,-2.755 c -1.108,-0.023 -1.996,-0.943 -1.968,-2.056 v 0 c 0.018,-1.112 0.943,-1.993 2.055,-1.971 v 0 c 1.109,0.023 1.988,0.943 1.971,2.055 v 0 c -0.026,1.097 -0.925,1.972 -2.015,1.972 v 0 c -0.015,0 -0.029,0 -0.043,0 m -57.17,-7.579 c -0.029,-2.869 2.272,-5.219 5.141,-5.247 v 0 c 2.87,-0.027 5.223,2.27 5.248,5.141 v 0 c 0.028,2.87 -2.273,5.221 -5.14,5.247 v 0 c -0.018,0 -0.037,0 -0.056,0 v 0 c -2.849,0 -5.167,-2.288 -5.193,-5.141 m 35.303,1.834 c -0.016,-1.827 1.457,-3.319 3.287,-3.331 v 0 c 1.827,-0.014 3.314,1.456 3.33,3.282 v 0 c 0.008,1.826 -1.457,3.317 -3.287,3.334 v 0 c -0.006,0 -0.012,0 -0.018,0 v 0 c -1.813,0 -3.303,-1.464 -3.312,-3.285 m 13.952,-2.4 c -1.739,-0.012 -3.138,-1.428 -3.12,-3.163 v 0 c 0.003,-1.736 1.425,-3.131 3.162,-3.121 v 0 c 1.739,0.014 3.136,1.427 3.126,3.163 v 0 c -0.013,1.73 -1.42,3.121 -3.148,3.121 v 0 c -0.007,0 -0.013,0 -0.02,0 m -35.289,-4.635 c -0.053,-2.463 1.892,-4.504 4.358,-4.557 v 0 c 2.459,-0.057 4.499,1.896 4.551,4.355 v 0 c 0.059,2.462 -1.897,4.502 -4.354,4.559 v 0 c -0.034,0 -0.069,0.001 -0.103,0.001 v 0 c -2.415,0 -4.399,-1.933 -4.452,-4.358 m 11.795,0.19 c -0.016,-2.147 1.707,-3.896 3.849,-3.915 v 0 c 2.151,-0.018 3.899,1.708 3.921,3.853 v 0 c 0.014,2.146 -1.712,3.898 -3.861,3.913 v 0 c -0.01,0 -0.021,0 -0.031,0 v 0 c -2.128,0 -3.862,-1.72 -3.878,-3.851 m 40.535,3.364 c -0.893,-0.008 -1.601,-0.738 -1.598,-1.627 v 0 c 0.01,-0.891 0.74,-1.604 1.63,-1.593 v 0 c 0.892,0.009 1.608,0.738 1.596,1.625 v 0 c -0.007,0.886 -0.73,1.595 -1.609,1.595 v 0 c -0.006,0 -0.012,0 -0.019,0 m -66.76,-9.061 c -1.224,-2.594 -0.1,-5.691 2.487,-6.913 v 0 c 2.6,-1.219 5.693,-0.106 6.912,2.492 v 0 c 1.221,2.598 0.108,5.695 -2.49,6.912 v 0 c -0.715,0.336 -1.467,0.495 -2.208,0.495 v 0 c -1.951,0 -3.82,-1.103 -4.701,-2.986 m 35.709,-0.652 c -0.413,-1.781 0.707,-3.553 2.49,-3.963 v 0 c 1.777,-0.406 3.548,0.71 3.957,2.49 v 0 c 0.406,1.779 -0.706,3.553 -2.487,3.96 v 0 c -0.25,0.057 -0.499,0.084 -0.744,0.084 v 0 c -1.507,0 -2.866,-1.036 -3.216,-2.571 m 20.279,-0.06 c -0.215,-1.097 0.505,-2.148 1.602,-2.357 v 0 c 1.089,-0.21 2.142,0.508 2.352,1.598 v 0 c 0.214,1.093 -0.506,2.147 -1.598,2.355 v 0 c -0.13,0.025 -0.259,0.038 -0.386,0.038 v 0 c -0.945,0 -1.784,-0.67 -1.97,-1.634 m -30.844,-3.491 c -0.436,-2.104 0.911,-4.159 3.012,-4.592 v 0 c 2.1,-0.437 4.155,0.912 4.593,3.014 v 0 c 0.434,2.1 -0.91,4.152 -3.015,4.591 v 0 c -0.265,0.055 -0.531,0.081 -0.792,0.082 v 0 c -1.803,0 -3.421,-1.262 -3.798,-3.095 m -12.572,-1.457 c -0.761,-2.34 0.515,-4.856 2.862,-5.617 v 0 c 2.34,-0.762 4.855,0.518 5.615,2.859 v 0 c 0.765,2.343 -0.519,4.856 -2.858,5.619 v 0 c -0.459,0.149 -0.925,0.221 -1.383,0.221 v 0 c -1.878,0 -3.624,-1.197 -4.236,-3.082 m 32.564,-2.472 c -0.359,-1.696 0.726,-3.361 2.432,-3.72 v 0 c 1.695,-0.355 3.362,0.732 3.722,2.427 v 0 c 0.35,1.7 -0.73,3.366 -2.431,3.723 v 0 c -0.218,0.046 -0.436,0.068 -0.65,0.068 v 0 c -1.458,0 -2.762,-1.013 -3.073,-2.498 m -49.524,-0.782 c -2.13,-1.922 -2.298,-5.212 -0.377,-7.342 v 0 c 1.921,-2.131 5.207,-2.301 7.335,-0.378 v 0 c 2.137,1.924 2.303,5.211 0.382,7.335 v 0 c -1.027,1.139 -2.444,1.719 -3.865,1.719 v 0 c -1.239,0 -2.482,-0.44 -3.475,-1.334 m 67.939,-1.804 c -0.167,-0.874 0.403,-1.717 1.275,-1.891 v 0 c 0.869,-0.171 1.72,0.398 1.891,1.272 v 0 c 0.175,0.87 -0.398,1.716 -1.271,1.889 v 0 c -0.104,0.021 -0.208,0.031 -0.31,0.031 v 0 c -0.753,0 -1.43,-0.534 -1.585,-1.301 m -30.14,-0.93 c -0.728,-1.673 0.045,-3.623 1.72,-4.354 v 0 c 1.668,-0.726 3.618,0.044 4.348,1.719 v 0 c 0.724,1.674 -0.037,3.625 -1.715,4.35 v 0 c -0.429,0.187 -0.877,0.276 -1.318,0.276 v 0 c -1.279,0 -2.498,-0.744 -3.035,-1.991 m -11.066,-1.576 c -0.825,-1.986 0.125,-4.255 2.11,-5.071 v 0 c 1.98,-0.821 4.252,0.124 5.072,2.106 v 0 c 0.811,1.985 -0.131,4.255 -2.11,5.071 v 0 c -0.486,0.2 -0.989,0.295 -1.483,0.295 v 0 c -1.527,0 -2.971,-0.905 -3.589,-2.401 m -14.177,-1.703 c -1.35,-2.061 -0.772,-4.826 1.284,-6.175 v 0 c 2.063,-1.348 4.825,-0.771 6.173,1.289 v 0 c 1.349,2.059 0.776,4.819 -1.284,6.169 v 0 c -0.753,0.495 -1.601,0.731 -2.44,0.731 v 0 c -1.454,0 -2.879,-0.71 -3.733,-2.014 m 44.808,-1.729 c -0.421,-1.029 0.065,-2.205 1.094,-2.63 v 0 c 1.029,-0.423 2.202,0.066 2.628,1.097 v 0 c 0.425,1.026 -0.065,2.202 -1.095,2.627 v 0 c -0.251,0.104 -0.511,0.153 -0.767,0.153 v 0 c -0.79,0 -1.541,-0.47 -1.86,-1.247 m -65.394,0.918 c -2.732,-0.882 -4.233,-3.809 -3.35,-6.542 v 0 c 0.88,-2.73 3.808,-4.229 6.533,-3.35 v 0 c 2.736,0.88 4.237,3.81 3.358,6.537 v 0 c -0.711,2.206 -2.751,3.606 -4.947,3.606 v 0 c -0.527,0 -1.064,-0.081 -1.594,-0.251 m 53.42,-5.673 c -0.677,-1.596 0.062,-3.438 1.66,-4.125 v 0 c 1.598,-0.68 3.436,0.06 4.123,1.653 v 0 c 0.677,1.601 -0.057,3.446 -1.66,4.127 v 0 c -0.402,0.172 -0.821,0.254 -1.234,0.254 v 0 c -1.22,0 -2.382,-0.715 -2.889,-1.909 m -11.909,-0.701 c -1.031,-1.513 -0.637,-3.567 0.878,-4.595 v 0 c 1.505,-1.026 3.561,-0.63 4.593,0.881 v 0 c 1.023,1.508 0.63,3.566 -0.879,4.593 v 0 c -0.568,0.387 -1.215,0.572 -1.854,0.572 v 0 c -1.059,0 -2.099,-0.509 -2.738,-1.451 m -11.797,-0.382 c -1.213,-1.77 -0.762,-4.187 1.006,-5.398 v 0 c 1.777,-1.214 4.187,-0.759 5.401,1.009 v 0 c 1.218,1.771 0.757,4.187 -1.01,5.4 v 0 c -0.671,0.46 -1.434,0.68 -2.19,0.68 v 0 c -1.238,0 -2.455,-0.591 -3.207,-1.691 m -17.506,-1.661 c -1.928,-1.524 -2.261,-4.33 -0.733,-6.262 v 0 c 1.529,-1.93 4.335,-2.257 6.263,-0.733 v 0 c 1.933,1.528 2.259,4.33 0.735,6.263 v 0 c -0.882,1.112 -2.186,1.693 -3.503,1.693 v 0 c -0.967,0 -1.942,-0.313 -2.762,-0.961 m 11.319,-5.711 c -1.528,-1.51 -1.538,-3.967 -0.029,-5.492 v 0 c 1.507,-1.523 3.963,-1.535 5.488,-0.029 v 0 c 1.528,1.51 1.544,3.965 0.032,5.493 v 0 c -0.76,0.767 -1.76,1.151 -2.76,1.151 v 0 c -0.988,0.001 -1.975,-0.374 -2.731,-1.123 m 46.489,0.046 c -0.36,-0.814 0.013,-1.766 0.825,-2.126 v 0 c 0.81,-0.364 1.758,0.007 2.121,0.817 v 0 c 0.364,0.816 -0.008,1.765 -0.82,2.126 v 0 c -0.212,0.094 -0.434,0.139 -0.653,0.139 v 0 c -0.618,0 -1.206,-0.357 -1.473,-0.956 m -11.052,-2.387 c -0.63,-0.922 -0.395,-2.176 0.521,-2.801 v 0 c 0.92,-0.625 2.18,-0.392 2.802,0.526 v 0 c 0.634,0.918 0.395,2.172 -0.527,2.8 v 0 c -0.346,0.238 -0.741,0.352 -1.132,0.352 v 0 c -0.641,0 -1.273,-0.307 -1.664,-0.877 m -24.404,-0.325 c -1.319,-1.267 -1.357,-3.364 -0.087,-4.68 v 0 c 1.271,-1.31 3.365,-1.349 4.677,-0.081 v 0 c 1.315,1.268 1.35,3.363 0.082,4.678 v 0 c -0.649,0.673 -1.512,1.011 -2.376,1.011 v 0 c -0.826,0 -1.653,-0.309 -2.296,-0.928 m 12.494,-0.693 c -0.972,-1.438 -0.591,-3.387 0.852,-4.364 v 0 c 1.436,-0.967 3.385,-0.584 4.362,0.851 v 0 c 0.967,1.441 0.584,3.394 -0.855,4.363 v 0 c -0.538,0.365 -1.149,0.54 -1.753,0.54 v 0 c -1.01,0 -2.002,-0.489 -2.606,-1.39 m -31.311,-3.001 c -1.813,-1.155 -2.336,-3.557 -1.18,-5.363 v 0 c 1.157,-1.809 3.559,-2.334 5.367,-1.183 v 0 c 1.804,1.158 2.331,3.56 1.179,5.368 v 0 c -0.744,1.157 -1.997,1.789 -3.278,1.789 v 0 c -0.716,0 -1.44,-0.197 -2.088,-0.611 m 10.517,-4.563 c -1.537,-0.991 -1.968,-3.045 -0.978,-4.577 v 0 c 0.987,-1.531 3.039,-1.967 4.575,-0.975 v 0 c 1.531,0.991 1.971,3.038 0.977,4.575 v 0 c -0.636,0.977 -1.698,1.509 -2.781,1.509 v 0 c -0.616,0 -1.238,-0.172 -1.793,-0.532 m 11.396,-3.747 c -1.243,-1.211 -1.27,-3.198 -0.066,-4.448 v 0 c 1.211,-1.242 3.202,-1.271 4.447,-0.069 v 0 c 1.247,1.211 1.276,3.201 0.065,4.448 v 0 c -0.617,0.636 -1.436,0.955 -2.256,0.955 v 0 c -0.788,0 -1.578,-0.295 -2.19,-0.886 m 12.636,-0.546 c -0.796,-0.786 -0.803,-2.063 -0.027,-2.851 v 0 c 0.779,-0.792 2.059,-0.8 2.851,-0.022 v 0 c 0.793,0.784 0.799,2.057 0.015,2.846 v 0 c -0.392,0.401 -0.91,0.602 -1.43,0.602 v 0 c -0.508,0 -1.017,-0.192 -1.409,-0.575 m 10.632,-0.731 c -0.519,-0.725 -0.353,-1.732 0.366,-2.251 v 0 c 0.724,-0.517 1.733,-0.355 2.251,0.367 v 0 c 0.517,0.722 0.357,1.733 -0.367,2.247 v 0 c -0.286,0.205 -0.615,0.303 -0.94,0.303 v 0 c -0.501,0 -0.993,-0.232 -1.31,-0.666 m -34.44,-7.637 c -1.459,-0.932 -1.882,-2.876 -0.949,-4.347 v 0 c 0.931,-1.455 2.876,-1.882 4.337,-0.951 v 0 c 1.465,0.936 1.896,2.88 0.953,4.341 v 0 c -0.599,0.939 -1.616,1.452 -2.653,1.452 v 0 c -0.58,0 -1.165,-0.16 -1.688,-0.495 m 12.317,-3.024 c -0.934,-0.611 -1.196,-1.857 -0.59,-2.79 v 0 c 0.605,-0.932 1.853,-1.194 2.784,-0.587 v 0 c 0.931,0.606 1.196,1.854 0.59,2.783 v 0 c -0.388,0.595 -1.035,0.917 -1.693,0.917 v 0 c -0.376,0 -0.755,-0.105 -1.091,-0.323 m 12.318,-0.873 c -0.636,-0.624 -0.636,-1.641 -0.012,-2.276 v 0 c 0.62,-0.631 1.645,-0.641 2.278,-0.016 v 0 c 0.638,0.623 0.638,1.642 0.017,2.276 v 0 c -0.315,0.32 -0.732,0.481 -1.149,0.481 v 0 c -0.408,0 -0.818,-0.154 -1.134,-0.465 m -13.806,-11.213 c -0.741,-0.487 -0.952,-1.489 -0.46,-2.233 v 0 c 0.486,-0.743 1.483,-0.951 2.222,-0.464 v 0 c 0.755,0.488 0.955,1.485 0.467,2.228 v 0 c -0.304,0.474 -0.819,0.731 -1.346,0.731 v 0 c -0.303,0 -0.61,-0.085 -0.883,-0.262"
               style="fill:url(#linearGradient26);stroke:none"
               id="path28" /></g></g></g></g><g
       id="g30"><g
         id="g32"
         clip-path="url(#clipPath36)"><g
           id="g38"
           transform="translate(150.4238,205.4301)"><path
             d="m 0,0 c -0.768,-2.765 -3.642,-4.379 -6.402,-3.605 -2.766,0.768 -4.376,3.639 -3.603,6.402 0.764,2.764 3.635,4.374 6.399,3.604 C -0.843,5.631 0.77,2.762 0,0"
             style="fill:#f1511b;fill-opacity:1;fill-rule:nonzero;stroke:none"
             id="path40" /></g><g
           id="g42"
           transform="translate(138.3667,147.0166)"><path
             d="M 0,0 C 0.258,2.856 2.788,4.965 5.642,4.71 8.506,4.448 10.609,1.924 10.351,-0.937 10.094,-3.791 7.569,-5.899 4.708,-5.641 1.85,-5.386 -0.256,-2.854 0,0"
             style="fill:#f1511b;fill-opacity:1;fill-rule:nonzero;stroke:none"
             id="path44" /></g><g
           id="g46"
           transform="translate(127.1602,150.6054)"><path
             d="M 0,0 C 1.335,2.54 4.484,3.509 7.022,2.173 9.557,0.829 10.529,-2.31 9.188,-4.848 7.853,-7.386 4.705,-8.355 2.167,-7.019 -0.368,-5.68 -1.341,-2.535 0,0"
             style="fill:#f1511b;fill-opacity:1;fill-rule:nonzero;stroke:none"
             id="path48" /></g><g
           id="g50"
           transform="translate(117.8872,158.644)"><path
             d="M 0,0 C 2.241,1.788 5.507,1.422 7.297,-0.826 9.084,-3.072 8.716,-6.337 6.472,-8.127 4.229,-9.917 0.958,-9.541 -0.832,-7.298 -2.622,-5.055 -2.249,-1.785 0,0"
             style="fill:#f1511b;fill-opacity:1;fill-rule:nonzero;stroke:none"
             id="path52" /></g><g
           id="g54"
           transform="translate(112.6323,169.6543)"><path
             d="m 0,0 c 2.77,0.748 5.623,-0.896 6.367,-3.667 0.737,-2.775 -0.902,-5.621 -3.68,-6.365 -2.765,-0.746 -5.616,0.9 -6.364,3.674 C -4.418,-3.59 -2.772,-0.739 0,0"
             style="fill:#f1511b;fill-opacity:1;fill-rule:nonzero;stroke:none"
             id="path56" /></g><g
           id="g58"
           transform="translate(112.1226,181.3544)"><path
             d="M 0,0 C 2.848,-0.374 4.85,-2.984 4.473,-5.83 4.098,-8.674 1.488,-10.676 -1.358,-10.296 -4.203,-9.926 -6.206,-7.31 -5.83,-4.467 -5.453,-1.624 -2.838,0.376 0,0"
             style="fill:#f1511b;fill-opacity:1;fill-rule:nonzero;stroke:none"
             id="path60" /></g><g
           id="g62"
           transform="translate(116.3799,192.7412)"><path
             d="m 0,0 c 2.466,-1.473 3.265,-4.665 1.788,-7.129 -1.476,-2.458 -4.667,-3.259 -7.126,-1.779 -2.464,1.473 -3.256,4.663 -1.79,7.126 C -5.651,0.677 -2.457,1.473 0,0"
             style="fill:#f1511b;fill-opacity:1;fill-rule:nonzero;stroke:none"
             id="path64" /></g><g
           id="g66"
           transform="translate(124.8135,201.4975)"><path
             d="m 0,0 c 1.675,-2.332 1.137,-5.577 -1.192,-7.25 -2.337,-1.672 -5.579,-1.14 -7.25,1.196 -1.675,2.328 -1.141,5.575 1.192,7.246 C -4.922,2.867 -1.672,2.331 0,0"
             style="fill:#f1511b;fill-opacity:1;fill-rule:nonzero;stroke:none"
             id="path68" /></g><g
           id="g70"
           transform="translate(137.394,206.4145)"><path
             d="m 0,0 c 0.479,-2.832 -1.425,-5.514 -4.257,-5.992 -2.832,-0.475 -5.508,1.43 -5.987,4.261 -0.476,2.829 1.429,5.51 4.261,5.985 C -3.157,4.734 -0.479,2.827 0,0"
             style="fill:#f1511b;fill-opacity:1;fill-rule:nonzero;stroke:none"
             id="path72" /></g><g
           id="g74"
           transform="translate(146.252,133.291)"><path
             d="m 0,0 c 0,-2.462 -1.995,-4.459 -4.462,-4.459 -2.457,0 -4.449,1.997 -4.449,4.459 0,2.459 1.992,4.456 4.449,4.456 C -1.995,4.456 0,2.459 0,0"
             style="fill:#f1511b;fill-opacity:1;fill-rule:nonzero;stroke:none"
             id="path76" /></g><g
           id="g78"
           transform="translate(159.7119,136.9687)"><path
             d="m 0,0 c 0.778,-2.339 -0.481,-4.859 -2.816,-5.639 -2.336,-0.776 -4.862,0.483 -5.638,2.82 -0.78,2.334 0.478,4.858 2.815,5.638 C -3.301,3.597 -0.776,2.338 0,0"
             style="fill:#f1511b;fill-opacity:1;fill-rule:nonzero;stroke:none"
             id="path80" /></g><g
           id="g82"
           transform="translate(137.0688,219.7055)"><path
             d="M 0,0 C 0.076,2.463 2.131,4.393 4.593,4.315 7.06,4.239 8.989,2.179 8.913,-0.282 8.83,-2.744 6.767,-4.675 4.312,-4.593 1.85,-4.518 -0.08,-2.458 0,0"
             style="fill:#f1511b;fill-opacity:1;fill-rule:nonzero;stroke:none"
             id="path84" /></g><g
           id="g86"
           transform="translate(150.2578,219.3325)"><path
             d="M 0,0 C 0.78,2.333 3.312,3.589 5.645,2.806 7.98,2.018 9.234,-0.509 8.447,-2.842 7.664,-5.175 5.137,-6.432 2.806,-5.647 0.467,-4.862 -0.783,-2.336 0,0"
             style="fill:#f1511b;fill-opacity:1;fill-rule:nonzero;stroke:none"
             id="path88" /></g><g
           id="g90"
           transform="translate(123.918,216.0009)"><path
             d="M 0,0 C -0.725,2.352 0.589,4.849 2.942,5.575 5.294,6.3 7.786,4.985 8.519,2.634 9.245,0.283 7.928,-2.216 5.575,-2.942 3.225,-3.673 0.726,-2.354 0,0"
             style="fill:#f1511b;fill-opacity:1;fill-rule:nonzero;stroke:none"
             id="path92" /></g><g
           id="g94"
           transform="translate(111.8857,207.7744)"><path
             d="M 0,0 C -1.486,1.966 -1.095,4.762 0.874,6.245 2.837,7.727 5.63,7.338 7.116,5.375 8.6,3.411 8.21,0.613 6.24,-0.869 4.278,-2.355 1.484,-1.966 0,0"
             style="fill:#f1511b;fill-opacity:1;fill-rule:nonzero;stroke:none"
             id="path96" /></g><g
           id="g98"
           transform="translate(99.2676,185.0844)"><path
             d="M 0,0 C -2.324,0.815 -3.552,3.354 -2.74,5.679 -1.924,8.004 0.616,9.227 2.943,8.417 5.267,7.601 6.491,5.059 5.676,2.735 4.864,0.412 2.322,-0.812 0,0"
             style="fill:#f1511b;fill-opacity:1;fill-rule:nonzero;stroke:none"
             id="path100" /></g><g
           id="g102"
           transform="translate(103.5781,197.6152)"><path
             d="M 0,0 C -2.029,1.39 -2.543,4.166 -1.15,6.199 0.244,8.227 3.021,8.744 5.048,7.348 7.082,5.955 7.595,3.177 6.199,1.148 4.806,-0.881 2.03,-1.396 0,0"
             style="fill:#f1511b;fill-opacity:1;fill-rule:nonzero;stroke:none"
             id="path104" /></g><g
           id="g106"
           transform="translate(98.5088,171.6953)"><path
             d="m 0,0 c -2.46,0.092 -4.383,2.158 -4.292,4.618 0.091,2.46 2.157,4.384 4.616,4.295 C 2.784,8.824 4.703,6.757 4.622,4.296 4.533,1.838 2.466,-0.086 0,0"
             style="fill:#f1511b;fill-opacity:1;fill-rule:nonzero;stroke:none"
             id="path108" /></g><g
           id="g110"
           transform="translate(102.0356,158.4511)"><path
             d="M 0,0 C -2.363,-0.693 -4.843,0.656 -5.531,3.021 -6.228,5.382 -4.873,7.86 -2.513,8.556 -0.154,9.249 2.326,7.896 3.018,5.533 3.711,3.169 2.365,0.695 0,0"
             style="fill:#f1511b;fill-opacity:1;fill-rule:nonzero;stroke:none"
             id="path112" /></g><g
           id="g114"
           transform="translate(109.751,146.9721)"><path
             d="m 0,0 c -1.992,-1.454 -4.779,-1.024 -6.237,0.96 -1.45,1.987 -1.022,4.778 0.963,6.233 1.986,1.458 4.775,1.028 6.232,-0.96 C 2.411,4.249 1.986,1.458 0,0"
             style="fill:#f1511b;fill-opacity:1;fill-rule:nonzero;stroke:none"
             id="path116" /></g><g
           id="g118"
           transform="translate(131.3857,134.0478)"><path
             d="m 0,0 c -0.851,-2.312 -3.408,-3.503 -5.722,-2.654 -2.308,0.845 -3.5,3.404 -2.653,5.717 0.847,2.311 3.407,3.501 5.722,2.654 C -0.345,4.872 0.844,2.313 0,0"
             style="fill:#f1511b;fill-opacity:1;fill-rule:nonzero;stroke:none"
             id="path120" /></g><g
           id="g122"
           transform="translate(120.1245,138.624)"><path
             d="m 0,0 c -1.426,-2.01 -4.208,-2.485 -6.217,-1.062 -2.004,1.424 -2.485,4.207 -1.061,6.214 1.422,2.01 4.202,2.485 6.216,1.06 C 0.942,4.793 1.418,2.009 0,0"
             style="fill:#f1511b;fill-opacity:1;fill-rule:nonzero;stroke:none"
             id="path124" /></g><g
           id="g126"
           transform="translate(145.6768,231.0869)"><path
             d="m 0,0 c 0,-2.146 -1.735,-3.884 -3.887,-3.884 -2.139,0 -3.878,1.738 -3.878,3.884 0,2.145 1.739,3.883 3.878,3.883 C -1.735,3.883 0,2.145 0,0"
             style="fill:#f1511b;fill-opacity:1;fill-rule:nonzero;stroke:none"
             id="path128" /></g><g
           id="g130"
           transform="translate(156.2695,229.2426)"><path
             d="m 0,0 c -0.421,-2.104 -2.467,-3.467 -4.566,-3.046 -2.102,0.417 -3.469,2.464 -3.048,4.566 0.42,2.105 2.466,3.47 4.572,3.049 C -0.942,4.149 0.42,2.104 0,0"
             style="fill:#f1511b;fill-opacity:1;fill-rule:nonzero;stroke:none"
             id="path132" /></g><g
           id="g134"
           transform="translate(165.8018,225.6113)"><path
             d="m 0,0 c -0.805,-1.988 -3.069,-2.95 -5.058,-2.146 -1.991,0.804 -2.946,3.066 -2.146,5.055 0.801,1.989 3.061,2.947 5.053,2.147 C -0.159,4.252 0.799,1.988 0,0"
             style="fill:#f1511b;fill-opacity:1;fill-rule:nonzero;stroke:none"
             id="path136" /></g><g
           id="g138"
           transform="translate(87.1167,180.1987)"><path
             d="M 0,0 C 2.146,0.018 3.893,-1.709 3.912,-3.857 3.925,-5.999 2.197,-7.75 0.058,-7.768 -2.091,-7.782 -3.836,-6.057 -3.854,-3.915 -3.87,-1.766 -2.147,-0.018 0,0"
             style="fill:#f1511b;fill-opacity:1;fill-rule:nonzero;stroke:none"
             id="path140" /></g><g
           id="g142"
           transform="translate(88.8784,190.8046)"><path
             d="M 0,0 C 2.106,-0.406 3.484,-2.441 3.084,-4.546 2.678,-6.652 0.642,-8.031 -1.461,-7.625 -3.571,-7.221 -4.945,-5.187 -4.542,-3.081 -4.143,-0.975 -2.11,0.404 0,0"
             style="fill:#f1511b;fill-opacity:1;fill-rule:nonzero;stroke:none"
             id="path144" /></g><g
           id="g146"
           transform="translate(92.4419,200.3608)"><path
             d="M 0,0 C 1.992,-0.788 2.966,-3.045 2.181,-5.038 1.391,-7.034 -0.866,-8.01 -2.858,-7.222 -4.852,-6.435 -5.83,-4.179 -5.041,-2.185 -4.253,-0.19 -1.997,0.787 0,0"
             style="fill:#f1511b;fill-opacity:1;fill-rule:nonzero;stroke:none"
             id="path148" /></g><g
           id="g150"
           transform="translate(98.4414,210.0473)"><path
             d="m 0,0 c 1.785,-1.187 2.273,-3.594 1.092,-5.381 -1.187,-1.788 -3.594,-2.278 -5.384,-1.09 -1.787,1.182 -2.277,3.592 -1.09,5.378 C -4.2,0.695 -1.793,1.183 0,0"
             style="fill:#f1511b;fill-opacity:1;fill-rule:nonzero;stroke:none"
             id="path152" /></g><g
           id="g154"
           transform="translate(105.5571,217.6181)"><path
             d="m 0,0 c 1.528,-1.502 1.551,-3.962 0.051,-5.49 -1.505,-1.532 -3.96,-1.554 -5.491,-0.055 -1.534,1.504 -1.557,3.962 -0.054,5.493 C -3.992,1.479 -1.533,1.504 0,0"
             style="fill:#f1511b;fill-opacity:1;fill-rule:nonzero;stroke:none"
             id="path156" /></g><g
           id="g158"
           transform="translate(114.3921,223.9873)"><path
             d="m 0,0 c 1.18,-1.792 0.691,-4.2 -1.099,-5.381 -1.79,-1.181 -4.197,-0.689 -5.38,1.099 -1.18,1.791 -0.693,4.199 1.1,5.382 C -3.592,2.279 -1.185,1.789 0,0"
             style="fill:#f1511b;fill-opacity:1;fill-rule:nonzero;stroke:none"
             id="path160" /></g><g
           id="g162"
           transform="translate(123.3945,228.0952)"><path
             d="m 0,0 c 0.863,-1.964 -0.035,-4.254 -1.995,-5.118 -1.96,-0.864 -4.252,0.026 -5.115,1.99 -0.863,1.962 0.03,4.255 1.986,5.118 C -3.162,2.854 -0.87,1.964 0,0"
             style="fill:#f1511b;fill-opacity:1;fill-rule:nonzero;stroke:none"
             id="path164" /></g><g
           id="g166"
           transform="translate(133.9912,230.5293)"><path
             d="m 0,0 c 0.5,-2.085 -0.784,-4.182 -2.869,-4.681 -2.089,-0.503 -4.179,0.783 -4.678,2.867 -0.506,2.085 0.78,4.182 2.863,4.681 C -2.589,3.368 -0.502,2.086 0,0"
             style="fill:#f1511b;fill-opacity:1;fill-rule:nonzero;stroke:none"
             id="path168" /></g><g
           id="g170"
           transform="translate(138.0044,122.0439)"><path
             d="M 0,0 C -0.016,2.146 1.71,3.896 3.859,3.909 6.001,3.929 7.749,2.2 7.768,0.057 7.781,-2.091 6.054,-3.84 3.911,-3.854 1.769,-3.87 0.018,-2.14 0,0"
             style="fill:#f1511b;fill-opacity:1;fill-rule:nonzero;stroke:none"
             id="path172" /></g><g
           id="g174"
           transform="translate(127.3955,123.8144)"><path
             d="M 0,0 C 0.407,2.104 2.45,3.482 4.553,3.077 6.656,2.673 8.039,0.637 7.63,-1.468 7.225,-3.574 5.191,-4.952 3.081,-4.547 0.978,-4.143 -0.399,-2.104 0,0"
             style="fill:#f1511b;fill-opacity:1;fill-rule:nonzero;stroke:none"
             id="path176" /></g><g
           id="g178"
           transform="translate(117.8442,127.3789)"><path
             d="M 0,0 C 0.792,1.993 3.048,2.971 5.041,2.183 7.036,1.392 8.014,-0.863 7.226,-2.86 6.435,-4.854 4.174,-5.83 2.187,-5.038 0.193,-4.251 -0.789,-1.994 0,0"
             style="fill:#f1511b;fill-opacity:1;fill-rule:nonzero;stroke:none"
             id="path180" /></g><g
           id="g182"
           transform="translate(108.1592,133.3818)"><path
             d="M 0,0 C 1.192,1.791 3.596,2.276 5.386,1.091 7.174,-0.096 7.658,-2.505 6.473,-4.291 5.293,-6.081 2.883,-6.567 1.093,-5.379 -0.697,-4.194 -1.18,-1.785 0,0"
             style="fill:#f1511b;fill-opacity:1;fill-rule:nonzero;stroke:none"
             id="path184" /></g><g
           id="g186"
           transform="translate(100.5962,140.5004)"><path
             d="M 0,0 C 1.496,1.53 3.955,1.555 5.486,0.053 7.02,-1.449 7.039,-3.909 5.54,-5.439 4.038,-6.967 1.579,-6.996 0.051,-5.492 -1.482,-3.987 -1.505,-1.53 0,0"
             style="fill:#f1511b;fill-opacity:1;fill-rule:nonzero;stroke:none"
             id="path188" /></g><g
           id="g190"
           transform="translate(94.2319,149.3408)"><path
             d="M 0,0 C 1.787,1.183 4.201,0.691 5.38,-1.101 6.561,-2.889 6.067,-5.297 4.277,-6.482 2.483,-7.662 0.076,-7.17 -1.102,-5.375 -2.285,-3.587 -1.79,-1.184 0,0"
             style="fill:#f1511b;fill-opacity:1;fill-rule:nonzero;stroke:none"
             id="path192" /></g><g
           id="g194"
           transform="translate(90.125,158.3432)"><path
             d="M 0,0 C 1.965,0.861 4.257,-0.032 5.114,-1.995 5.984,-3.958 5.089,-6.249 3.122,-7.11 1.164,-7.973 -1.125,-7.08 -1.986,-5.117 -2.854,-3.154 -1.963,-0.863 0,0"
             style="fill:#f1511b;fill-opacity:1;fill-rule:nonzero;stroke:none"
             id="path196" /></g><g
           id="g198"
           transform="translate(87.6987,168.9453)"><path
             d="M 0,0 C 2.083,0.502 4.181,-0.786 4.68,-2.869 5.179,-4.956 3.893,-7.052 1.806,-7.551 -0.278,-8.053 -2.372,-6.768 -2.867,-4.68 -3.37,-2.591 -2.087,-0.502 0,0"
             style="fill:#f1511b;fill-opacity:1;fill-rule:nonzero;stroke:none"
             id="path200" /></g><g
           id="g202"
           transform="translate(159.1318,124.7939)"><path
             d="M 0,0 C -0.835,1.976 0.092,4.254 2.071,5.089 4.047,5.922 6.317,4.993 7.152,3.02 7.991,1.046 7.061,-1.234 5.089,-2.069 3.116,-2.9 0.84,-1.974 0,0"
             style="fill:#f1511b;fill-opacity:1;fill-rule:nonzero;stroke:none"
             id="path204" /></g><g
           id="g206"
           transform="translate(148.5,122.5195)"><path
             d="M 0,0 C -0.474,2.095 0.844,4.169 2.938,4.638 5.026,5.11 7.104,3.791 7.572,1.696 8.046,-0.395 6.728,-2.469 4.634,-2.939 2.543,-3.408 0.472,-2.094 0,0"
             style="fill:#f1511b;fill-opacity:1;fill-rule:nonzero;stroke:none"
             id="path208" /></g><g
           id="g210"
           transform="translate(137.9121,240.2915)"><path
             d="m 0,0 c 0,-1.827 -1.477,-3.31 -3.307,-3.31 -1.833,0 -3.31,1.483 -3.31,3.31 0,1.825 1.477,3.309 3.31,3.309 C -1.477,3.309 0,1.825 0,0"
             style="fill:#f1511b;fill-opacity:1;fill-rule:nonzero;stroke:none"
             id="path212" /></g><g
           id="g214"
           transform="translate(152.7061,239.3671)"><path
             d="m 0,0 c -0.416,-1.778 -2.198,-2.879 -3.977,-2.453 -1.78,0.419 -2.88,2.2 -2.461,3.978 0.426,1.779 2.209,2.877 3.99,2.458 C -0.674,3.56 0.424,1.776 0,0"
             style="fill:#f1511b;fill-opacity:1;fill-rule:nonzero;stroke:none"
             id="path216" /></g><g
           id="g218"
           transform="translate(164.1934,236.1562)"><path
             d="M 0,0 C -0.737,-1.666 -2.697,-2.416 -4.363,-1.669 -6.031,-0.925 -6.779,1.033 -6.038,2.7 -5.29,4.367 -3.334,5.115 -1.664,4.37 0,3.625 0.752,1.67 0,0"
             style="fill:#f1511b;fill-opacity:1;fill-rule:nonzero;stroke:none"
             id="path220" /></g><g
           id="g222"
           transform="translate(174.3936,231.1669)"><path
             d="m 0,0 c -1.025,-1.512 -3.084,-1.901 -4.597,-0.873 -1.505,1.029 -1.894,3.086 -0.863,4.597 1.024,1.508 3.085,1.9 4.594,0.871 C 0.649,3.565 1.029,1.506 0,0"
             style="fill:#f1511b;fill-opacity:1;fill-rule:nonzero;stroke:none"
             id="path224" /></g><g
           id="g226"
           transform="translate(168.584,118.8691)"><path
             d="M 0,0 C -0.692,1.696 0.123,3.626 1.811,4.315 3.502,5.006 5.437,4.188 6.127,2.497 6.816,0.805 6.003,-1.125 4.312,-1.818 2.617,-2.501 0.693,-1.686 0,0"
             style="fill:#f1511b;fill-opacity:1;fill-rule:nonzero;stroke:none"
             id="path228" /></g><g
           id="g230"
           transform="translate(157.0469,114.7304)"><path
             d="M 0,0 C -0.353,1.793 0.814,3.534 2.608,3.886 4.401,4.241 6.137,3.072 6.492,1.277 6.845,-0.513 5.677,-2.252 3.884,-2.605 2.087,-2.957 0.352,-1.792 0,0"
             style="fill:#f1511b;fill-opacity:1;fill-rule:nonzero;stroke:none"
             id="path232" /></g><g
           id="g234"
           transform="translate(145.1855,112.8896)"><path
             d="M 0,0 C -0.004,1.828 1.47,3.315 3.291,3.326 5.124,3.339 6.605,1.864 6.616,0.038 6.633,-1.79 5.152,-3.278 3.326,-3.29 1.501,-3.301 0.016,-1.826 0,0"
             style="fill:#f1511b;fill-opacity:1;fill-rule:nonzero;stroke:none"
             id="path236" /></g><g
           id="g238"
           transform="translate(130.9985,113.6201)"><path
             d="M 0,0 C 0.403,1.786 2.165,2.916 3.948,2.519 5.73,2.125 6.854,0.358 6.459,-1.426 6.07,-3.209 4.3,-4.334 2.515,-3.941 0.736,-3.549 -0.393,-1.781 0,0"
             style="fill:#f1511b;fill-opacity:1;fill-rule:nonzero;stroke:none"
             id="path240" /></g><g
           id="g242"
           transform="translate(120.5967,116.246)"><path
             d="M 0,0 C 0.693,1.694 2.618,2.514 4.312,1.822 6.003,1.138 6.822,-0.794 6.134,-2.486 5.448,-4.18 3.513,-4.995 1.82,-4.309 0.134,-3.617 -0.687,-1.69 0,0"
             style="fill:#f1511b;fill-opacity:1;fill-rule:nonzero;stroke:none"
             id="path244" /></g><g
           id="g246"
           transform="translate(106.9741,122.8349)"><path
             d="M 0,0 C 1.064,1.483 3.138,1.821 4.614,0.757 6.102,-0.31 6.439,-2.379 5.373,-3.861 4.305,-5.348 2.237,-5.682 0.753,-4.618 -0.729,-3.55 -1.068,-1.484 0,0"
             style="fill:#f1511b;fill-opacity:1;fill-rule:nonzero;stroke:none"
             id="path248" /></g><g
           id="g250"
           transform="translate(98.2241,129.5664)"><path
             d="M 0,0 C 1.309,1.277 3.401,1.256 4.684,-0.053 5.959,-1.358 5.931,-3.454 4.625,-4.728 3.318,-6.009 1.224,-5.981 -0.051,-4.679 -1.328,-3.369 -1.304,-1.277 0,0"
             style="fill:#f1511b;fill-opacity:1;fill-rule:nonzero;stroke:none"
             id="path252" /></g><g
           id="g254"
           transform="translate(89.9517,138.7919)"><path
             d="M 0,0 C 1.528,0.996 3.583,0.571 4.578,-0.959 5.584,-2.486 5.16,-4.537 3.628,-5.534 2.094,-6.539 0.048,-6.109 -0.952,-4.583 -1.956,-3.051 -1.53,-1.006 0,0"
             style="fill:#f1511b;fill-opacity:1;fill-rule:nonzero;stroke:none"
             id="path256" /></g><g
           id="g258"
           transform="translate(84.0674,148.497)"><path
             d="M 0,0 C 1.684,0.714 3.631,-0.069 4.337,-1.751 5.061,-3.433 4.271,-5.375 2.589,-6.09 0.905,-6.803 -1.033,-6.016 -1.75,-4.337 -2.464,-2.655 -1.675,-0.716 0,0"
             style="fill:#f1511b;fill-opacity:1;fill-rule:nonzero;stroke:none"
             id="path260" /></g><g
           id="g262"
           transform="translate(80.1304,158.6513)"><path
             d="M 0,0 C 1.775,0.417 3.564,-0.687 3.976,-2.464 4.397,-4.243 3.295,-6.024 1.51,-6.44 -0.269,-6.859 -2.046,-5.752 -2.466,-3.978 -2.881,-2.199 -1.781,-0.417 0,0"
             style="fill:#f1511b;fill-opacity:1;fill-rule:nonzero;stroke:none"
             id="path264" /></g><g
           id="g266"
           transform="translate(77.6963,172.3056)"><path
             d="M 0,0 C 1.836,0.025 3.338,-1.438 3.357,-3.265 3.378,-5.09 1.919,-6.59 0.09,-6.615 -1.738,-6.638 -3.235,-5.173 -3.267,-3.35 -3.279,-1.525 -1.822,-0.026 0,0"
             style="fill:#f1511b;fill-opacity:1;fill-rule:nonzero;stroke:none"
             id="path268" /></g><g
           id="g270"
           transform="translate(78.2061,185.6391)"><path
             d="M 0,0 C 1.792,-0.36 2.959,-2.101 2.598,-3.892 2.239,-5.684 0.495,-6.847 -1.295,-6.49 -3.083,-6.134 -4.245,-4.39 -3.892,-2.6 -3.536,-0.81 -1.794,0.353 0,0"
             style="fill:#f1511b;fill-opacity:1;fill-rule:nonzero;stroke:none"
             id="path272" /></g><g
           id="g274"
           transform="translate(81.2676,198.0092)"><path
             d="M 0,0 C 1.682,-0.707 2.478,-2.646 1.77,-4.331 1.064,-6.015 -0.871,-6.81 -2.558,-6.102 -4.242,-5.396 -5.038,-3.458 -4.332,-1.77 -3.626,-0.087 -1.687,0.703 0,0"
             style="fill:#f1511b;fill-opacity:1;fill-rule:nonzero;stroke:none"
             id="path276" /></g><g
           id="g278"
           transform="translate(86.8105,209.6704)"><path
             d="m 0,0 c 1.51,-1.033 1.895,-3.09 0.865,-4.599 -1.031,-1.508 -3.09,-1.898 -4.599,-0.865 -1.505,1.031 -1.896,3.089 -0.867,4.601 C -3.567,0.642 -1.509,1.026 0,0"
             style="fill:#f1511b;fill-opacity:1;fill-rule:nonzero;stroke:none"
             id="path280" /></g><g
           id="g282"
           transform="translate(94.8389,220.2509)"><path
             d="m 0,0 c 1.27,-1.324 1.226,-3.419 -0.099,-4.678 -1.319,-1.263 -3.414,-1.216 -4.676,0.102 -1.262,1.325 -1.214,3.419 0.106,4.681 C -3.35,1.365 -1.259,1.317 0,0"
             style="fill:#f1511b;fill-opacity:1;fill-rule:nonzero;stroke:none"
             id="path284" /></g><g
           id="g286"
           transform="translate(103.6133,228.0205)"><path
             d="M 0,0 C 0.998,-1.53 0.57,-3.582 -0.962,-4.58 -2.479,-5.579 -4.535,-5.152 -5.54,-3.624 -6.535,-2.091 -6.102,-0.04 -4.579,0.962 -3.049,1.958 -1.003,1.528 0,0"
             style="fill:#f1511b;fill-opacity:1;fill-rule:nonzero;stroke:none"
             id="path288" /></g><g
           id="g290"
           transform="translate(113.603,234.0293)"><path
             d="m 0,0 c 0.704,-1.691 -0.09,-3.627 -1.781,-4.33 -1.68,-0.706 -3.62,0.087 -4.324,1.774 -0.71,1.687 0.089,3.623 1.773,4.33 C -2.646,2.479 -0.709,1.683 0,0"
             style="fill:#f1511b;fill-opacity:1;fill-rule:nonzero;stroke:none"
             id="path292" /></g><g
           id="g294"
           transform="translate(125.4199,238.3608)"><path
             d="m 0,0 c 0.362,-1.795 -0.798,-3.54 -2.595,-3.896 -1.784,-0.364 -3.535,0.795 -3.893,2.59 -0.359,1.79 0.805,3.534 2.595,3.896 C -2.103,2.949 -0.361,1.788 0,0"
             style="fill:#f1511b;fill-opacity:1;fill-rule:nonzero;stroke:none"
             id="path296" /></g><g
           id="g298"
           transform="translate(129.8628,249.8344)"><path
             d="m 0,0 c 0.34,-1.707 -0.761,-3.363 -2.467,-3.704 -1.697,-0.339 -3.354,0.762 -3.699,2.461 -0.341,1.702 0.764,3.36 2.466,3.702 C -2,2.8 -0.345,1.699 0,0"
             style="fill:#f1511b;fill-opacity:1;fill-rule:nonzero;stroke:none"
             id="path300" /></g><g
           id="g302"
           transform="translate(145.0156,250.6997)"><path
             d="m 0,0 c -0.016,-1.74 -1.433,-3.138 -3.165,-3.122 -1.74,0.01 -3.139,1.426 -3.127,3.16 0.011,1.74 1.433,3.134 3.165,3.126 C -1.391,3.15 0.005,1.735 0,0"
             style="fill:#f1511b;fill-opacity:1;fill-rule:nonzero;stroke:none"
             id="path304" /></g><g
           id="g306"
           transform="translate(162.209,247.8706)"><path
             d="m 0,0 c -0.419,-1.688 -2.126,-2.718 -3.805,-2.3 -1.683,0.415 -2.716,2.118 -2.297,3.802 0.415,1.688 2.119,2.714 3.805,2.302 C -0.613,3.385 0.412,1.681 0,0"
             style="fill:#f1511b;fill-opacity:1;fill-rule:nonzero;stroke:none"
             id="path308" /></g><g
           id="g310"
           transform="translate(173.9502,243.3779)"><path
             d="m 0,0 c -0.697,-1.595 -2.551,-2.321 -4.139,-1.625 -1.59,0.693 -2.321,2.548 -1.626,4.138 0.698,1.592 2.549,2.318 4.137,1.623 C -0.032,3.439 0.689,1.59 0,0"
             style="fill:#f1511b;fill-opacity:1;fill-rule:nonzero;stroke:none"
             id="path312" /></g><g
           id="g314"
           transform="translate(166.5527,106.6865)"><path
             d="M 0,0 C -0.646,1.614 0.139,3.445 1.742,4.089 3.359,4.734 5.188,3.951 5.834,2.338 6.476,0.725 5.695,-1.103 4.086,-1.749 2.475,-2.39 0.649,-1.608 0,0"
             style="fill:#f1511b;fill-opacity:1;fill-rule:nonzero;stroke:none"
             id="path316" /></g><g
           id="g318"
           transform="translate(153.0508,103.2617)"><path
             d="M 0,0 C -0.329,1.711 0.776,3.361 2.483,3.693 4.188,4.024 5.837,2.915 6.173,1.214 6.505,-0.495 5.393,-2.144 3.689,-2.478 1.988,-2.809 0.34,-1.699 0,0"
             style="fill:#f1511b;fill-opacity:1;fill-rule:nonzero;stroke:none"
             id="path320" /></g><g
           id="g322"
           transform="translate(137.228,102.5136)"><path
             d="M 0,0 C 0.035,1.74 1.473,3.117 3.203,3.08 4.945,3.046 6.316,1.606 6.279,-0.129 6.244,-1.864 4.811,-3.24 3.076,-3.206 1.342,-3.164 -0.037,-1.733 0,0"
             style="fill:#f1511b;fill-opacity:1;fill-rule:nonzero;stroke:none"
             id="path324" /></g><g
           id="g326"
           transform="translate(123.0674,104.746)"><path
             d="M 0,0 C 0.375,1.698 2.043,2.77 3.741,2.405 5.436,2.036 6.514,0.364 6.145,-1.332 5.773,-3.033 4.102,-4.107 2.407,-3.737 0.713,-3.366 -0.364,-1.692 0,0"
             style="fill:#f1511b;fill-opacity:1;fill-rule:nonzero;stroke:none"
             id="path328" /></g><g
           id="g330"
           transform="translate(109.105,109.8984)"><path
             d="M 0,0 C 0.709,1.592 2.558,2.312 4.149,1.611 5.734,0.91 6.454,-0.943 5.757,-2.531 5.052,-4.121 3.2,-4.841 1.612,-4.141 0.023,-3.438 -0.696,-1.587 0,0"
             style="fill:#f1511b;fill-opacity:1;fill-rule:nonzero;stroke:none"
             id="path332" /></g><g
           id="g334"
           transform="translate(94.9556,118.9209)"><path
             d="M 0,0 C 1.038,1.394 3.007,1.678 4.4,0.64 5.791,-0.4 6.068,-2.369 5.027,-3.759 3.992,-5.152 2.025,-5.436 0.631,-4.397 -0.755,-3.359 -1.04,-1.389 0,0"
             style="fill:#f1511b;fill-opacity:1;fill-rule:nonzero;stroke:none"
             id="path336" /></g><g
           id="g338"
           transform="translate(86.4517,126.9873)"><path
             d="M 0,0 C 1.254,1.21 3.242,1.182 4.454,-0.06 5.658,-1.302 5.635,-3.297 4.39,-4.505 3.139,-5.713 1.155,-5.687 -0.057,-4.436 -1.265,-3.194 -1.24,-1.206 0,0"
             style="fill:#f1511b;fill-opacity:1;fill-rule:nonzero;stroke:none"
             id="path340" /></g><g
           id="g342"
           transform="translate(78.0396,138.3847)"><path
             d="M 0,0 C 1.454,0.95 3.403,0.543 4.353,-0.903 5.303,-2.357 4.896,-4.305 3.442,-5.256 1.992,-6.21 0.044,-5.799 -0.909,-4.346 -1.857,-2.895 -1.449,-0.951 0,0"
             style="fill:#f1511b;fill-opacity:1;fill-rule:nonzero;stroke:none"
             id="path344" /></g><g
           id="g346"
           transform="translate(72.6343,149.3335)"><path
             d="M 0,0 C 1.594,0.701 3.446,-0.018 4.147,-1.607 4.845,-3.194 4.128,-5.051 2.535,-5.749 0.943,-6.445 -0.906,-5.732 -1.609,-4.139 -2.305,-2.549 -1.586,-0.695 0,0"
             style="fill:#f1511b;fill-opacity:1;fill-rule:nonzero;stroke:none"
             id="path348" /></g><g
           id="g350"
           transform="translate(68.6089,163.5205)"><path
             d="m 0,0 c 1.703,0.368 3.378,-0.702 3.753,-2.396 0.368,-1.695 -0.706,-3.372 -2.4,-3.743 -1.702,-0.372 -3.373,0.7 -3.75,2.4 C -2.758,-2.046 -1.691,-0.372 0,0"
             style="fill:#f1511b;fill-opacity:1;fill-rule:nonzero;stroke:none"
             id="path352" /></g><g
           id="g354"
           transform="translate(67.4873,178.9155)"><path
             d="M 0,0 C 1.739,0.008 3.155,-1.382 3.173,-3.118 3.188,-4.852 1.79,-6.272 0.055,-6.285 -1.686,-6.295 -3.101,-4.901 -3.113,-3.165 -3.124,-1.432 -1.73,-0.015 0,0"
             style="fill:#f1511b;fill-opacity:1;fill-rule:nonzero;stroke:none"
             id="path356" /></g><g
           id="g358"
           transform="translate(69.5107,193.9248)"><path
             d="M 0,0 C 1.703,-0.342 2.807,-1.995 2.471,-3.697 2.128,-5.397 0.472,-6.504 -1.231,-6.162 -2.938,-5.823 -4.038,-4.17 -3.698,-2.463 -3.357,-0.766 -1.702,0.337 0,0"
             style="fill:#f1511b;fill-opacity:1;fill-rule:nonzero;stroke:none"
             id="path360" /></g><g
           id="g362"
           transform="translate(74.1802,207.4492)"><path
             d="M 0,0 C 1.608,-0.664 2.375,-2.495 1.717,-4.098 1.056,-5.703 -0.784,-6.472 -2.384,-5.811 -3.996,-5.148 -4.76,-3.313 -4.104,-1.706 -3.437,-0.104 -1.601,0.663 0,0"
             style="fill:#f1511b;fill-opacity:1;fill-rule:nonzero;stroke:none"
             id="path364" /></g><g
           id="g366"
           transform="translate(81.4619,219.9697)"><path
             d="m 0,0 c 1.441,-0.966 1.845,-2.912 0.886,-4.36 -0.958,-1.443 -2.913,-1.841 -4.358,-0.879 -1.45,0.961 -1.843,2.907 -0.881,4.358 C -3.394,0.562 -1.445,0.955 0,0"
             style="fill:#f1511b;fill-opacity:1;fill-rule:nonzero;stroke:none"
             id="path368" /></g><g
           id="g370"
           transform="translate(92.4863,232.1518)"><path
             d="m 0,0 c 1.203,-1.26 1.159,-3.243 -0.092,-4.445 -1.256,-1.201 -3.244,-1.157 -4.443,0.099 -1.203,1.256 -1.16,3.24 0.099,4.446 C -3.184,1.295 -1.197,1.252 0,0"
             style="fill:#f1511b;fill-opacity:1;fill-rule:nonzero;stroke:none"
             id="path372" /></g><g
           id="g374"
           transform="translate(103.0737,239.9589)"><path
             d="m 0,0 c 0.955,-1.455 0.566,-3.397 -0.875,-4.36 -1.453,-0.959 -3.409,-0.562 -4.364,0.883 -0.958,1.448 -0.566,3.397 0.883,4.358 C -2.902,1.836 -0.962,1.443 0,0"
             style="fill:#f1511b;fill-opacity:1;fill-rule:nonzero;stroke:none"
             id="path376" /></g><g
           id="g378"
           transform="translate(115.915,246.1699)"><path
             d="m 0,0 c 0.665,-1.609 -0.094,-3.443 -1.695,-4.11 -1.602,-0.664 -3.445,0.098 -4.108,1.698 -0.667,1.608 0.09,3.442 1.701,4.113 C -2.501,2.358 -0.662,1.598 0,0"
             style="fill:#f1511b;fill-opacity:1;fill-rule:nonzero;stroke:none"
             id="path380" /></g><g
           id="g382"
           transform="translate(135.3267,258.8437)"><path
             d="m 0,0 c 0,-1.115 -0.902,-2.016 -2.015,-2.016 -1.114,0 -2.016,0.901 -2.016,2.016 0,1.109 0.902,2.014 2.016,2.014 C -0.902,2.014 0,1.109 0,0"
             style="fill:#f1511b;fill-opacity:1;fill-rule:nonzero;stroke:none"
             id="path384" /></g><g
           id="g386"
           transform="translate(142.9727,267.7587)"><path
             d="m 0,0 c 0,-0.891 -0.722,-1.609 -1.608,-1.609 -0.891,0 -1.615,0.718 -1.615,1.609 0,0.891 0.724,1.611 1.615,1.611 C -0.722,1.611 0,0.891 0,0"
             style="fill:#f1511b;fill-opacity:1;fill-rule:nonzero;stroke:none"
             id="path388" /></g><g
           id="g390"
           transform="translate(164.498,264.8618)"><path
             d="m 0,0 c -0.214,-0.865 -1.077,-1.394 -1.947,-1.186 -0.866,0.21 -1.396,1.082 -1.182,1.946 0.207,0.864 1.082,1.392 1.945,1.186 C -0.324,1.735 0.21,0.862 0,0"
             style="fill:#f1511b;fill-opacity:1;fill-rule:nonzero;stroke:none"
             id="path392" /></g><g
           id="g394"
           transform="translate(181.0459,258.8212)"><path
             d="m 0,0 c -0.371,-0.808 -1.333,-1.164 -2.142,-0.788 -0.808,0.374 -1.16,1.327 -0.784,2.139 0.372,0.805 1.325,1.16 2.134,0.788 C 0.013,1.765 0.373,0.808 0,0"
             style="fill:#f1511b;fill-opacity:1;fill-rule:nonzero;stroke:none"
             id="path396" /></g><g
           id="g398"
           transform="translate(173.5498,91.1503)"><path
             d="M 0,0 C -0.325,0.827 0.091,1.765 0.911,2.087 1.742,2.407 2.68,2 2.995,1.17 3.322,0.343 2.91,-0.593 2.082,-0.913 1.26,-1.24 0.32,-0.83 0,0"
             style="fill:#f1511b;fill-opacity:1;fill-rule:nonzero;stroke:none"
             id="path400" /></g><g
           id="g402"
           transform="translate(156.8955,86.6728)"><path
             d="M 0,0 C -0.166,0.878 0.416,1.716 1.286,1.877 2.162,2.038 3.006,1.46 3.165,0.588 3.329,-0.29 2.753,-1.13 1.873,-1.294 1.002,-1.455 0.161,-0.873 0,0"
             style="fill:#f1511b;fill-opacity:1;fill-rule:nonzero;stroke:none"
             id="path404" /></g><g
           id="g406"
           transform="translate(137.9546,85.4638)"><path
             d="M 0,0 C 0.021,0.891 0.762,1.593 1.648,1.572 2.54,1.542 3.244,0.805 3.216,-0.085 3.2,-0.972 2.46,-1.679 1.569,-1.652 0.681,-1.629 -0.023,-0.885 0,0"
             style="fill:#f1511b;fill-opacity:1;fill-rule:nonzero;stroke:none"
             id="path408" /></g><g
           id="g410"
           transform="translate(118.9004,88.2724)"><path
             d="M 0,0 C 0.214,0.866 1.086,1.4 1.945,1.187 2.809,0.975 3.339,0.105 3.132,-0.756 2.924,-1.62 2.055,-2.156 1.188,-1.947 0.325,-1.735 -0.208,-0.859 0,0"
             style="fill:#f1511b;fill-opacity:1;fill-rule:nonzero;stroke:none"
             id="path412" /></g><g
           id="g414"
           transform="translate(102.0518,94.4365)"><path
             d="M 0,0 C 0.376,0.808 1.332,1.156 2.135,0.783 2.943,0.406 3.298,-0.549 2.92,-1.354 2.547,-2.163 1.592,-2.516 0.782,-2.139 -0.023,-1.764 -0.375,-0.805 0,0"
             style="fill:#f1511b;fill-opacity:1;fill-rule:nonzero;stroke:none"
             id="path416" /></g><g
           id="g418"
           transform="translate(85.7974,104.498)"><path
             d="M 0,0 C 0.534,0.715 1.541,0.86 2.253,0.322 2.959,-0.216 3.104,-1.224 2.57,-1.935 2.039,-2.646 1.025,-2.792 0.316,-2.255 -0.391,-1.719 -0.542,-0.707 0,0"
             style="fill:#f1511b;fill-opacity:1;fill-rule:nonzero;stroke:none"
             id="path420" /></g><g
           id="g422"
           transform="translate(73.9468,115.4941)"><path
             d="M 0,0 C 0.649,0.607 1.669,0.568 2.276,-0.085 2.881,-0.74 2.846,-1.76 2.193,-2.357 1.539,-2.968 0.518,-2.936 -0.083,-2.278 -0.693,-1.625 -0.651,-0.606 0,0"
             style="fill:#f1511b;fill-opacity:1;fill-rule:nonzero;stroke:none"
             id="path424" /></g><g
           id="g426"
           transform="translate(64.4434,128.0595)"><path
             d="M 0,0 C 0.748,0.484 1.746,0.269 2.225,-0.478 2.708,-1.224 2.501,-2.22 1.753,-2.699 1.001,-3.186 0.011,-2.977 -0.476,-2.23 -0.958,-1.48 -0.75,-0.484 0,0"
             style="fill:#f1511b;fill-opacity:1;fill-rule:nonzero;stroke:none"
             id="path428" /></g><g
           id="g430"
           transform="translate(57.8584,140.5976)"><path
             d="M 0,0 C 0.815,0.366 1.772,0.002 2.129,-0.812 2.49,-1.627 2.129,-2.578 1.318,-2.938 0.502,-3.302 -0.453,-2.941 -0.817,-2.126 -1.173,-1.314 -0.812,-0.362 0,0"
             style="fill:#f1511b;fill-opacity:1;fill-rule:nonzero;stroke:none"
             id="path432" /></g><g
           id="g434"
           transform="translate(52.6108,156.9018)"><path
             d="M 0,0 C 0.867,0.205 1.735,-0.331 1.94,-1.196 2.138,-2.066 1.607,-2.931 0.741,-3.134 -0.127,-3.341 -0.994,-2.805 -1.196,-1.937 -1.401,-1.072 -0.867,-0.205 0,0"
             style="fill:#f1511b;fill-opacity:1;fill-rule:nonzero;stroke:none"
             id="path436" /></g><g
           id="g438"
           transform="translate(50.4614,177.0053)"><path
             d="M 0,0 C 0.897,0.013 1.619,-0.697 1.627,-1.59 1.631,-2.48 0.918,-3.21 0.034,-3.216 -0.859,-3.225 -1.584,-2.514 -1.597,-1.624 -1.607,-0.733 -0.888,-0.005 0,0"
             style="fill:#f1511b;fill-opacity:1;fill-rule:nonzero;stroke:none"
             id="path440" /></g><g
           id="g442"
           transform="translate(52.1367,193.9838)"><path
             d="M 0,0 C 0.877,-0.154 1.461,-0.991 1.302,-1.865 1.143,-2.744 0.308,-3.326 -0.562,-3.166 -1.447,-3.013 -2.025,-2.175 -1.866,-1.298 -1.712,-0.422 -0.875,0.159 0,0"
             style="fill:#f1511b;fill-opacity:1;fill-rule:nonzero;stroke:none"
             id="path444" /></g><g
           id="g446"
           transform="translate(57.6992,212.1831)"><path
             d="M 0,0 C 0.828,-0.333 1.22,-1.271 0.888,-2.096 0.55,-2.92 -0.389,-3.318 -1.211,-2.978 -2.04,-2.645 -2.432,-1.706 -2.1,-0.881 -1.765,-0.059 -0.824,0.339 0,0"
             style="fill:#f1511b;fill-opacity:1;fill-rule:nonzero;stroke:none"
             id="path448" /></g><g
           id="g450"
           transform="translate(66.748,228.5874)"><path
             d="m 0,0 c 0.739,-0.498 0.934,-1.5 0.435,-2.234 -0.502,-0.739 -1.501,-0.937 -2.23,-0.435 -0.743,0.496 -0.943,1.494 -0.442,2.232 C -1.739,0.302 -0.737,0.496 0,0"
             style="fill:#f1511b;fill-opacity:1;fill-rule:nonzero;stroke:none"
             id="path452" /></g><g
           id="g454"
           transform="translate(78.9717,242.8164)"><path
             d="m 0,0 c 0.628,-0.639 0.614,-1.656 -0.025,-2.275 -0.642,-0.624 -1.662,-0.61 -2.272,0.03 -0.627,0.636 -0.614,1.654 0.024,2.277 C -1.636,0.652 -0.617,0.637 0,0"
             style="fill:#f1511b;fill-opacity:1;fill-rule:nonzero;stroke:none"
             id="path456" /></g><g
           id="g458"
           transform="translate(93.0327,253.7265)"><path
             d="m 0,0 c 0.487,-0.746 0.276,-1.742 -0.469,-2.229 -0.748,-0.482 -1.749,-0.272 -2.224,0.474 -0.492,0.746 -0.278,1.742 0.466,2.229 C -1.479,0.96 -0.484,0.745 0,0"
             style="fill:#f1511b;fill-opacity:1;fill-rule:nonzero;stroke:none"
             id="path460" /></g><g
           id="g462"
           transform="translate(109.5688,261.9399)"><path
             d="m 0,0 c 0.329,-0.832 -0.08,-1.763 -0.908,-2.087 -0.827,-0.325 -1.765,0.083 -2.081,0.911 -0.331,0.829 0.077,1.762 0.906,2.09 C -1.256,1.237 -0.322,0.826 0,0"
             style="fill:#f1511b;fill-opacity:1;fill-rule:nonzero;stroke:none"
             id="path464" /></g><g
           id="g466"
           transform="translate(124.8169,266.2021)"><path
             d="m 0,0 c 0.179,-0.876 -0.384,-1.723 -1.256,-1.9 -0.877,-0.175 -1.726,0.386 -1.9,1.257 -0.178,0.875 0.388,1.724 1.263,1.901 C -1.024,1.434 -0.177,0.872 0,0"
             style="fill:#f1511b;fill-opacity:1;fill-rule:nonzero;stroke:none"
             id="path468" /></g><g
           id="g470"
           transform="translate(153.8691,258.1743)"><path
             d="m 0,0 c -0.249,-1.082 -1.329,-1.76 -2.415,-1.511 -1.078,0.25 -1.762,1.329 -1.509,2.412 0.245,1.082 1.326,1.76 2.412,1.514 C -0.431,2.166 0.246,1.087 0,0"
             style="fill:#f1511b;fill-opacity:1;fill-rule:nonzero;stroke:none"
             id="path472" /></g><g
           id="g474"
           transform="translate(170.458,253.892)"><path
             d="m 0,0 c -0.465,-1.008 -1.66,-1.448 -2.67,-0.982 -1.012,0.468 -1.449,1.663 -0.982,2.672 0.467,1.012 1.665,1.451 2.673,0.982 C 0.034,2.206 0.462,1.009 0,0"
             style="fill:#f1511b;fill-opacity:1;fill-rule:nonzero;stroke:none"
             id="path476" /></g><g
           id="g478"
           transform="translate(183.3467,247.7739)"><path
             d="m 0,0 c -0.635,-0.914 -1.885,-1.137 -2.803,-0.506 -0.911,0.636 -1.14,1.887 -0.511,2.801 0.642,0.914 1.896,1.142 2.807,0.506 C 0.407,2.169 0.641,0.913 0,0"
             style="fill:#f1511b;fill-opacity:1;fill-rule:nonzero;stroke:none"
             id="path480" /></g><g
           id="g482"
           transform="translate(178.7578,102.8886)"><path
             d="M 0,0 C -0.423,1.026 0.063,2.202 1.104,2.625 2.122,3.048 3.302,2.556 3.723,1.526 4.139,0.499 3.657,-0.677 2.628,-1.102 1.599,-1.521 0.422,-1.027 0,0"
             style="fill:#f1511b;fill-opacity:1;fill-rule:nonzero;stroke:none"
             id="path484" /></g><g
           id="g486"
           transform="translate(163.8486,97.1142)"><path
             d="M 0,0 C -0.221,1.091 0.486,2.15 1.583,2.368 2.673,2.584 3.733,1.873 3.948,0.783 4.169,-0.31 3.458,-1.369 2.368,-1.583 1.275,-1.799 0.214,-1.09 0,0"
             style="fill:#f1511b;fill-opacity:1;fill-rule:nonzero;stroke:none"
             id="path488" /></g><g
           id="g490"
           transform="translate(146.7578,94.2304)"><path
             d="M 0,0 C 0.016,1.113 0.923,2.001 2.043,1.985 3.151,1.969 4.043,1.051 4.021,-0.06 4.008,-1.172 3.094,-2.061 1.98,-2.04 0.868,-2.023 -0.016,-1.11 0,0"
             style="fill:#f1511b;fill-opacity:1;fill-rule:nonzero;stroke:none"
             id="path492" /></g><g
           id="g494"
           transform="translate(128.7417,95.0888)"><path
             d="M 0,0 C 0.258,1.082 1.342,1.749 2.427,1.493 3.504,1.236 4.174,0.148 3.912,-0.933 3.658,-2.017 2.577,-2.682 1.485,-2.425 0.408,-2.165 -0.255,-1.082 0,0"
             style="fill:#f1511b;fill-opacity:1;fill-rule:nonzero;stroke:none"
             id="path496" /></g><g
           id="g498"
           transform="translate(114.293,98.7392)"><path
             d="M 0,0 C 0.447,1.016 1.64,1.48 2.664,1.035 3.673,0.584 4.137,-0.606 3.686,-1.622 3.242,-2.639 2.055,-3.103 1.036,-2.653 0.02,-2.207 -0.444,-1.017 0,0"
             style="fill:#f1511b;fill-opacity:1;fill-rule:nonzero;stroke:none"
             id="path500" /></g><g
           id="g502"
           transform="translate(98.0205,106.5517)"><path
             d="M 0,0 C 0.662,0.896 1.921,1.088 2.816,0.43 3.714,-0.229 3.902,-1.489 3.241,-2.384 2.59,-3.281 1.329,-3.476 0.434,-2.815 -0.463,-2.157 -0.656,-0.896 0,0"
             style="fill:#f1511b;fill-opacity:1;fill-rule:nonzero;stroke:none"
             id="path504" /></g><g
           id="g506"
           transform="translate(85.4736,116.1523)"><path
             d="M 0,0 C 0.822,0.752 2.094,0.7 2.847,-0.116 3.599,-0.931 3.548,-2.209 2.731,-2.961 1.916,-3.713 0.642,-3.663 -0.111,-2.848 -0.869,-2.032 -0.817,-0.757 0,0"
             style="fill:#f1511b;fill-opacity:1;fill-rule:nonzero;stroke:none"
             id="path508" /></g><g
           id="g510"
           transform="translate(75.8779,126.7695)"><path
             d="M 0,0 C 0.934,0.601 2.174,0.331 2.784,-0.606 3.382,-1.54 3.113,-2.789 2.17,-3.383 1.24,-3.986 -0.003,-3.721 -0.606,-2.785 -1.208,-1.848 -0.937,-0.601 0,0"
             style="fill:#f1511b;fill-opacity:1;fill-rule:nonzero;stroke:none"
             id="path512" /></g><g
           id="g514"
           transform="translate(68.4268,138.5498)"><path
             d="M 0,0 C 1.029,0.437 2.205,-0.039 2.644,-1.064 3.084,-2.085 2.605,-3.272 1.579,-3.702 0.559,-4.136 -0.623,-3.663 -1.062,-2.643 -1.497,-1.618 -1.017,-0.434 0,0"
             style="fill:#f1511b;fill-opacity:1;fill-rule:nonzero;stroke:none"
             id="path516" /></g><g
           id="g518"
           transform="translate(62.728,152.519)"><path
             d="M 0,0 C 1.089,0.242 2.161,-0.442 2.407,-1.526 2.649,-2.612 1.963,-3.688 0.875,-3.927 -0.209,-4.171 -1.279,-3.488 -1.525,-2.4 -1.766,-1.319 -1.081,-0.241 0,0"
             style="fill:#f1511b;fill-opacity:1;fill-rule:nonzero;stroke:none"
             id="path520" /></g><g
           id="g522"
           transform="translate(59.3901,170.2094)"><path
             d="M 0,0 C 1.113,0.004 2.017,-0.9 2.017,-2.013 2.017,-3.124 1.116,-4.025 0,-4.023 -1.102,-4.025 -2.007,-3.127 -2.013,-2.014 -2.013,-0.903 -1.109,0 0,0"
             style="fill:#f1511b;fill-opacity:1;fill-rule:nonzero;stroke:none"
             id="path524" /></g><g
           id="g526"
           transform="translate(59.666,185.8232)"><path
             d="M 0,0 C 1.093,-0.206 1.806,-1.261 1.601,-2.354 1.39,-3.446 0.333,-4.162 -0.755,-3.95 -1.845,-3.745 -2.564,-2.69 -2.356,-1.598 -2.146,-0.507 -1.097,0.209 0,0"
             style="fill:#f1511b;fill-opacity:1;fill-rule:nonzero;stroke:none"
             id="path528" /></g><g
           id="g530"
           transform="translate(63.147,201.9687)"><path
             d="m 0,0 c 1.031,-0.421 1.524,-1.597 1.098,-2.626 -0.417,-1.028 -1.6,-1.52 -2.626,-1.095 -1.03,0.421 -1.519,1.595 -1.1,2.624 C -2.204,-0.071 -1.024,0.422 0,0"
             style="fill:#f1511b;fill-opacity:1;fill-rule:nonzero;stroke:none"
             id="path532" /></g><g
           id="g534"
           transform="translate(69.7529,217.0512)"><path
             d="M 0,0 C 0.922,-0.619 1.173,-1.868 0.557,-2.793 -0.06,-3.718 -1.316,-3.965 -2.234,-3.345 -3.161,-2.731 -3.41,-1.479 -2.792,-0.554 -2.177,0.366 -0.923,0.615 0,0"
             style="fill:#f1511b;fill-opacity:1;fill-rule:nonzero;stroke:none"
             id="path536" /></g><g
           id="g538"
           transform="translate(80.0239,231.4355)"><path
             d="m 0,0 c 0.776,-0.797 0.749,-2.073 -0.051,-2.848 -0.805,-0.771 -2.072,-0.748 -2.844,0.057 -0.772,0.799 -0.752,2.075 0.047,2.844 C -2.05,0.824 -0.771,0.798 0,0"
             style="fill:#f1511b;fill-opacity:1;fill-rule:nonzero;stroke:none"
             id="path540" /></g><g
           id="g542"
           transform="translate(92.0391,242.5)"><path
             d="M 0,0 C 0.598,-0.935 0.324,-2.181 -0.614,-2.779 -1.553,-3.378 -2.8,-3.102 -3.387,-2.167 -3.989,-1.23 -3.718,0.015 -2.781,0.614 -1.843,1.213 -0.6,0.936 0,0"
             style="fill:#f1511b;fill-opacity:1;fill-rule:nonzero;stroke:none"
             id="path544" /></g><g
           id="g546"
           transform="translate(105.1538,250.5732)"><path
             d="m 0,0 c 0.423,-1.028 -0.083,-2.203 -1.114,-2.617 -1.026,-0.412 -2.202,0.089 -2.616,1.122 -0.416,1.028 0.086,2.203 1.12,2.616 C -1.584,1.532 -0.408,1.03 0,0"
             style="fill:#f1511b;fill-opacity:1;fill-rule:nonzero;stroke:none"
             id="path548" /></g><g
           id="g550"
           transform="translate(120.3066,256.2753)"><path
             d="m 0,0 c 0.207,-1.093 -0.515,-2.143 -1.608,-2.351 -1.091,-0.203 -2.142,0.518 -2.343,1.611 -0.211,1.092 0.507,2.145 1.6,2.348 C -1.256,1.812 -0.198,1.09 0,0"
             style="fill:#f1511b;fill-opacity:1;fill-rule:nonzero;stroke:none"
             id="path552" /></g><g
           id="g554"
           transform="translate(151.4023,182.3837)"><path
             d="m 0,0 c -0.905,6.399 -4.843,8.614 -9.19,8.614 -5.25,0 -8.862,-3.036 -10.006,-8.614 z m 11.155,-16.571 c -5.089,-6.81 -11.648,-10.42 -20.016,-10.42 -10.747,0 -21.085,6.81 -21.085,21.905 0,13.782 8.861,21.575 20.428,21.575 10.829,0 15.34,-6.481 16.164,-7.712 3.361,-4.757 4.101,-11.894 4.18,-15.997 h -30.351 c 1.148,-6.481 5.167,-10.17 11.649,-10.17 6.725,0 9.433,3.935 10.663,5.658 z"
             style="fill:#231f20;fill-opacity:1;fill-rule:nonzero;stroke:none"
             id="path556" /></g><g
           id="g558"
           transform="translate(179.5371,197.6416)"><path
             d="M 0,0 V -5.823 C 1.231,-3.689 3.939,1.15 13.128,0.904 V -9.188 C 10.996,-9.27 7.305,-9.351 4.269,-11.649 0.087,-14.847 0,-19.031 0,-25.84 V -41.018 H -9.516 V 0 Z"
             style="fill:#231f20;fill-opacity:1;fill-rule:nonzero;stroke:none"
             id="path560" /></g><g
           id="g562"
           transform="translate(223.8379,183.122)"><path
             d="m 0,0 c -0.739,2.707 -3.609,6.973 -9.27,6.973 -5.661,0 -10.174,-4.512 -10.174,-12.716 0,-7.382 3.858,-12.798 10.338,-12.798 6.236,0 8.613,4.758 9.844,8.041 l 8.45,-4.43 C 5.989,-23.79 -2.133,-27.729 -9.27,-27.729 c -11.406,0 -20.343,8.778 -20.343,21.74 0,12.553 9.02,21.739 20.673,21.739 10.335,0 15.586,-6.89 17.716,-11.649 z"
             style="fill:#231f20;fill-opacity:1;fill-rule:nonzero;stroke:none"
             id="path564" /></g><g
           id="g598"
           transform="translate(109.7993,63.5654)" /></g></g></g></svg>
