<?xml version="1.0" encoding="UTF-8" standalone="no"?>
<!-- Generator: Adobe Illustrator 15.0.0, SVG Export Plug-In  -->

<svg
   version="1.1"
   x="0px"
   y="0px"
   width="342.405"
   height="162.384"
   viewBox="-36.073 -17.643 342.405 162.384"
   enable-background="new -36.073 -17.643 425 227"
   xml:space="preserve"
   id="svg454"
   sodipodi:docname="NOMAD_Logo.svg"
   inkscape:version="1.1.2 (0a00cf5339, 2022-02-04)"
   xmlns:inkscape="http://www.inkscape.org/namespaces/inkscape"
   xmlns:sodipodi="http://sodipodi.sourceforge.net/DTD/sodipodi-0.dtd"
   xmlns="http://www.w3.org/2000/svg"
   xmlns:svg="http://www.w3.org/2000/svg"><sodipodi:namedview
   id="namedview456"
   pagecolor="#ffffff"
   bordercolor="#666666"
   borderopacity="1.0"
   inkscape:pageshadow="2"
   inkscape:pageopacity="0.0"
   inkscape:pagecheckerboard="0"
   showgrid="false"
   inkscape:zoom="1.3470588"
   inkscape:cx="328.12227"
   inkscape:cy="172.96943"
   inkscape:window-width="1866"
   inkscape:window-height="1146"
   inkscape:window-x="1945"
   inkscape:window-y="25"
   inkscape:window-maximized="1"
   inkscape:current-layer="svg454" />
<defs
   id="defs2">
</defs>
<polygon
   fill="#17a5f7"
   points="93.973,53.652 105.613,65.293 109.873,49.391 98.234,37.752 "
   id="polygon4"
   transform="translate(-36.073,-17.643)" />
<polygon
   fill="#17a5f7"
   points="73.811,73.811 85.451,85.451 89.711,69.549 78.072,57.91 "
   id="polygon6"
   transform="translate(-36.073,-17.643)" />
<polygon
   fill="#17a5f7"
   points="121.512,61.031 133.152,72.67 137.412,56.77 125.773,45.131 "
   id="polygon8"
   transform="translate(-36.073,-17.643)" />
<polygon
   fill="#17a5f7"
   points="101.35,81.189 112.99,92.828 117.25,76.928 105.611,65.289 "
   id="polygon10"
   transform="translate(-36.073,-17.643)" />
<polygon
   fill="#17a5f7"
   points="149.051,68.408 160.691,80.049 164.951,64.146 153.313,52.508 "
   id="polygon12"
   transform="translate(-36.073,-17.643)" />
<polygon
   fill="#17a5f7"
   points="128.889,88.566 140.529,100.207 144.789,84.305 133.15,72.666 "
   id="polygon14"
   transform="translate(-36.073,-17.643)" />
<polygon
   fill="#17a5f7"
   points="176.59,75.787 188.231,87.426 192.491,71.525 180.852,59.887 "
   id="polygon16"
   transform="translate(-36.073,-17.643)" />
<polygon
   fill="#17a5f7"
   points="156.428,95.945 168.068,107.584 172.328,91.684 160.689,80.045 "
   id="polygon18"
   transform="translate(-36.073,-17.643)" />
<polygon
   fill="#17a5f7"
   points="204.13,83.164 215.771,94.805 220.03,78.902 208.392,67.264 "
   id="polygon20"
   transform="translate(-36.073,-17.643)" />
<polygon
   fill="#17a5f7"
   points="183.968,103.322 195.608,114.963 199.868,99.061 188.229,87.422 "
   id="polygon22"
   transform="translate(-36.073,-17.643)" />
<polygon
   fill="#17a5f7"
   points="231.669,90.543 243.31,102.182 247.569,86.281 235.931,74.643 "
   id="polygon24"
   transform="translate(-36.073,-17.643)" />
<polygon
   fill="#17a5f7"
   points="211.507,110.701 223.147,122.341 227.407,106.439 215.769,94.801 "
   id="polygon26"
   transform="translate(-36.073,-17.643)" />
<polygon
   fill="#17a5f7"
   points="81.189,101.352 92.83,112.99 97.09,97.09 85.451,85.451 "
   id="polygon28"
   transform="translate(-36.073,-17.643)" />
<polygon
   fill="#17a5f7"
   points="108.729,108.729 120.369,120.37 124.629,104.467 112.99,92.828 "
   id="polygon30"
   transform="translate(-36.073,-17.643)" />
<polygon
   fill="#17a5f7"
   points="136.268,116.108 147.908,127.747 152.168,111.846 140.529,100.207 "
   id="polygon32"
   transform="translate(-36.073,-17.643)" />
<polygon
   fill="#17a5f7"
   points="163.807,123.485 175.447,135.126 179.707,119.224 168.068,107.584 "
   id="polygon34"
   transform="translate(-36.073,-17.643)" />
<polygon
   fill="#17a5f7"
   points="191.347,130.864 202.987,142.503 207.247,126.603 195.608,114.963 "
   id="polygon36"
   transform="translate(-36.073,-17.643)" />
<polygon
   fill="#17a5f7"
   points="218.886,138.241 224.706,144.062 226.837,136.11 221.017,130.292 "
   id="polygon38"
   transform="translate(-36.073,-17.643)" />
<polygon
   fill="#17a5f7"
   points="246.431,145.63 252.251,151.448 254.382,143.499 248.562,137.679 "
   id="polygon40"
   transform="translate(-36.073,-17.643)" />
<polygon
   fill="#17a5f7"
   points="334.454,92.527 340.274,98.346 342.405,90.396 336.585,84.576 "
   id="polygon42"
   transform="translate(-36.073,-17.643)" />
<polygon
   fill="#17a5f7"
   points="292.157,30.066 297.978,35.885 300.106,27.936 294.288,22.115 "
   id="polygon44"
   transform="translate(-36.073,-17.643)" />
<polygon
   fill="#17a5f7"
   points="259.208,97.92 270.849,109.561 275.108,93.658 263.47,82.02 "
   id="polygon46"
   transform="translate(-36.073,-17.643)" />
<polygon
   fill="#17a5f7"
   points="239.046,118.079 250.687,129.72 254.946,113.816 243.308,102.178 "
   id="polygon48"
   transform="translate(-36.073,-17.643)" />
<polygon
   fill="#17a5f7"
   points="286.747,105.299 298.388,116.938 302.647,101.037 291.009,89.398 "
   id="polygon50"
   transform="translate(-36.073,-17.643)" />
<polygon
   fill="#17a5f7"
   points="266.585,125.458 278.226,137.097 282.485,121.196 270.847,109.557 "
   id="polygon52"
   transform="translate(-36.073,-17.643)" />
<polygon
   fill="#17a5f7"
   points="161.834,20.711 167.654,26.531 169.785,18.58 163.965,12.762 "
   id="polygon54"
   transform="translate(-36.073,-17.643)" />
<polygon
   fill="#17a5f7"
   points="114.135,33.49 119.955,39.311 122.084,31.359 116.266,25.541 "
   id="polygon56"
   transform="translate(-36.073,-17.643)" />
<polygon
   fill="#17a5f7"
   points="134.295,13.33 137.205,16.24 138.271,12.266 135.361,9.355 "
   id="polygon58"
   transform="translate(-36.073,-17.643)" />
<polygon
   fill="#17a5f7"
   points="86.596,26.111 89.506,29.021 90.57,25.047 87.66,22.137 "
   id="polygon60"
   transform="translate(-36.073,-17.643)" />
<polygon
   fill="#17a5f7"
   points="59.055,18.734 61.965,21.645 63.031,17.67 60.121,14.76 "
   id="polygon62"
   transform="translate(-36.073,-17.643)" />
<polygon
   fill="#17a5f7"
   points="3.977,3.975 6.887,6.885 7.951,2.91 5.041,0 "
   id="polygon64"
   transform="translate(-36.073,-17.643)" />
<polygon
   fill="#17a5f7"
   points="11.354,31.514 14.264,34.424 15.328,30.449 12.418,27.539 "
   id="polygon66"
   transform="translate(-36.073,-17.643)" />
<polygon
   fill="#17a5f7"
   points="26.111,86.59 29.021,89.5 30.086,85.525 27.176,82.615 "
   id="polygon68"
   transform="translate(-36.073,-17.643)" />
<polygon
   fill="#17a5f7"
   points="33.49,114.129 36.4,117.04 37.465,113.064 34.555,110.154 "
   id="polygon70"
   transform="translate(-36.073,-17.643)" />
<polygon
   fill="#17a5f7"
   points="61.029,121.513 63.939,124.423 65.006,120.448 62.096,117.538 "
   id="polygon72"
   transform="translate(-36.073,-17.643)" />
<polygon
   fill="#17a5f7"
   points="88.57,128.733 91.48,131.644 92.545,127.669 89.635,124.759 "
   id="polygon74"
   transform="translate(-36.073,-17.643)" />
<polygon
   fill="#17a5f7"
   points="116.109,136.272 119.02,139.183 120.086,135.208 117.176,132.298 "
   id="polygon76"
   transform="translate(-36.073,-17.643)" />
<polygon
   fill="#17a5f7"
   points="198.729,158.409 201.64,161.319 202.704,157.345 199.794,154.435 "
   id="polygon78"
   transform="translate(-36.073,-17.643)" />
<polygon
   fill="#17a5f7"
   points="237.077,15.307 239.987,18.217 241.052,14.242 238.142,11.332 "
   id="polygon80"
   transform="translate(-36.073,-17.643)" />
<polygon
   fill="#17a5f7"
   points="264.618,22.688 267.528,25.598 268.593,21.623 265.683,18.713 "
   id="polygon82"
   transform="translate(-36.073,-17.643)" />
<polygon
   fill="#17a5f7"
   points="327.077,64.986 329.987,67.896 331.052,63.922 328.142,61.012 "
   id="polygon84"
   transform="translate(-36.073,-17.643)" />
<polygon
   fill="#17a5f7"
   points="314.294,112.686 317.204,115.597 318.269,111.621 315.358,108.711 "
   id="polygon86"
   transform="translate(-36.073,-17.643)" />
<polygon
   fill="#17a5f7"
   points="38.893,38.893 44.713,44.713 46.842,36.762 41.023,30.943 "
   id="polygon88"
   transform="translate(-36.073,-17.643)" />
<polygon
   fill="#17a5f7"
   points="66.434,46.117 72.254,51.938 74.383,43.986 68.564,38.168 "
   id="polygon90"
   transform="translate(-36.073,-17.643)" />
<polygon
   fill="#17a5f7"
   points="26.111,61.031 31.932,66.85 34.061,58.9 28.242,53.08 "
   id="polygon92"
   transform="translate(-36.073,-17.643)" />
<polygon
   fill="#17a5f7"
   points="46.271,66.43 52.092,72.25 54.221,64.299 48.402,58.48 "
   id="polygon94"
   transform="translate(-36.073,-17.643)" />
<polygon
   fill="#17a5f7"
   points="143.648,143.651 149.469,149.47 151.6,141.521 145.779,135.7 "
   id="polygon96"
   transform="translate(-36.073,-17.643)" />
<polygon
   fill="#17a5f7"
   points="53.65,93.971 59.471,99.791 61.6,91.84 55.781,86.021 "
   id="polygon98"
   transform="translate(-36.073,-17.643)" />
<polygon
   fill="#17a5f7"
   points="141.672,40.869 153.313,52.51 157.572,36.607 145.934,24.969 "
   id="polygon100"
   transform="translate(-36.073,-17.643)" />
<polygon
   fill="#17a5f7"
   points="189.374,28.09 195.194,33.908 197.325,25.959 191.505,20.139 "
   id="polygon102"
   transform="translate(-36.073,-17.643)" />
<polygon
   fill="#17a5f7"
   points="169.211,48.248 180.852,59.887 185.112,43.986 173.473,32.348 "
   id="polygon104"
   transform="translate(-36.073,-17.643)" />
<polygon
   fill="#17a5f7"
   points="216.913,35.467 222.733,41.287 224.864,33.336 219.044,27.518 "
   id="polygon106"
   transform="translate(-36.073,-17.643)" />
<polygon
   fill="#17a5f7"
   points="196.751,55.625 208.392,67.266 212.651,51.363 201.013,39.725 "
   id="polygon108"
   transform="translate(-36.073,-17.643)" />
<polygon
   fill="#17a5f7"
   points="244.452,42.846 256.093,54.484 260.353,38.584 248.714,26.945 "
   id="polygon110"
   transform="translate(-36.073,-17.643)" />
<polygon
   fill="#17a5f7"
   points="224.29,63.004 235.931,74.643 240.19,58.742 228.552,47.104 "
   id="polygon112"
   transform="translate(-36.073,-17.643)" />
<polygon
   fill="#17a5f7"
   points="271.991,50.223 283.632,61.863 287.892,45.961 276.253,34.322 "
   id="polygon114"
   transform="translate(-36.073,-17.643)" />
<polygon
   fill="#17a5f7"
   points="251.829,70.381 263.47,82.021 267.729,66.119 256.091,54.48 "
   id="polygon116"
   transform="translate(-36.073,-17.643)" />
<polygon
   fill="#17a5f7"
   points="299.53,57.602 311.171,69.24 315.431,53.34 303.792,41.701 "
   id="polygon118"
   transform="translate(-36.073,-17.643)" />
<polygon
   fill="#17a5f7"
   points="279.368,77.76 291.009,89.398 295.269,73.498 283.63,61.859 "
   id="polygon120"
   transform="translate(-36.073,-17.643)" />
<polygon
   fill="#17a5f7"
   points="306.907,85.137 318.548,96.777 322.808,80.875 311.169,69.236 "
   id="polygon122"
   transform="translate(-36.073,-17.643)" />
<polygon
   fill="#00c8c9"
   points="149.051,68.408 133.15,72.668 137.412,56.77 153.313,52.508 "
   id="polygon124"
   transform="translate(-36.073,-17.643)" />
<polygon
   fill="#00c8c9"
   points="128.889,88.566 112.988,92.826 117.25,76.928 133.15,72.666 "
   id="polygon126"
   transform="translate(-36.073,-17.643)" />
<polygon
   fill="#00c8c9"
   points="176.59,75.787 160.689,80.045 164.951,64.146 180.852,59.887 "
   id="polygon128"
   transform="translate(-36.073,-17.643)" />
<polygon
   fill="#00c8c9"
   points="156.428,95.945 140.527,100.203 144.789,84.305 160.689,80.045 "
   id="polygon130"
   transform="translate(-36.073,-17.643)" />
<polygon
   fill="#00c8c9"
   points="204.13,83.164 188.229,87.424 192.491,71.525 208.392,67.264 "
   id="polygon132"
   transform="translate(-36.073,-17.643)" />
<polygon
   fill="#00c8c9"
   points="183.968,103.322 168.066,107.582 172.328,91.684 188.229,87.422 "
   id="polygon134"
   transform="translate(-36.073,-17.643)" />
<polygon
   fill="#00c8c9"
   points="231.669,90.543 215.769,94.801 220.03,78.902 235.931,74.643 "
   id="polygon136"
   transform="translate(-36.073,-17.643)" />
<polygon
   fill="#00c8c9"
   points="259.208,97.92 243.308,102.18 247.569,86.281 263.47,82.02 "
   id="polygon138"
   transform="translate(-36.073,-17.643)" />
<polygon
   fill="#00c8c9"
   points="251.829,70.381 235.929,74.641 240.19,58.742 256.091,54.48 "
   id="polygon140"
   transform="translate(-36.073,-17.643)" />
<polygon
   fill="#527de3"
   points="121.512,61.031 133.152,72.67 117.252,76.93 105.611,65.289 "
   id="polygon142"
   transform="translate(-36.073,-17.643)" />
<polygon
   fill="#527de3"
   points="101.35,81.189 112.99,92.828 97.09,97.088 85.449,85.447 "
   id="polygon144"
   transform="translate(-36.073,-17.643)" />
<polygon
   fill="#527de3"
   points="149.051,68.408 160.691,80.049 144.791,84.309 133.15,72.668 "
   id="polygon146"
   transform="translate(-36.073,-17.643)" />
<polygon
   fill="#527de3"
   points="128.889,88.566 140.529,100.207 124.629,104.467 112.988,92.826 "
   id="polygon148"
   transform="translate(-36.073,-17.643)" />
<polygon
   fill="#527de3"
   points="176.59,75.787 188.231,87.426 172.33,91.686 160.689,80.045 "
   id="polygon150"
   transform="translate(-36.073,-17.643)" />
<polygon
   fill="#527de3"
   points="204.13,83.164 215.771,94.805 199.87,99.064 188.229,87.424 "
   id="polygon152"
   transform="translate(-36.073,-17.643)" />
<polygon
   fill="#527de3"
   points="231.669,90.543 243.31,102.182 227.409,106.441 215.769,94.801 "
   id="polygon154"
   transform="translate(-36.073,-17.643)" />
<polygon
   fill="#527de3"
   points="259.208,97.92 270.849,109.561 254.948,113.82 243.308,102.18 "
   id="polygon156"
   transform="translate(-36.073,-17.643)" />
<polygon
   fill="#527de3"
   points="224.29,63.004 235.931,74.643 220.03,78.902 208.39,67.262 "
   id="polygon158"
   transform="translate(-36.073,-17.643)" />
<polygon
   fill="#527de3"
   points="251.829,70.381 263.47,82.021 247.569,86.281 235.929,74.641 "
   id="polygon160"
   transform="translate(-36.073,-17.643)" />
<polygon
   fill="#527de3"
   points="279.368,77.76 291.009,89.398 275.108,93.658 263.468,82.018 "
   id="polygon162"
   transform="translate(-36.073,-17.643)" />
<polygon
   fill="#00dfe0"
   points="93.973,53.652 78.072,57.912 82.334,42.014 98.234,37.752 "
   id="polygon164"
   transform="translate(-36.073,-17.643)" />
<polygon
   fill="#00dfe0"
   points="73.811,73.811 57.91,78.07 62.172,62.172 78.072,57.91 "
   id="polygon166"
   transform="translate(-36.073,-17.643)" />
<polygon
   fill="#00dfe0"
   points="121.512,61.031 105.611,65.289 109.873,49.391 125.773,45.131 "
   id="polygon168"
   transform="translate(-36.073,-17.643)" />
<polygon
   fill="#00dfe0"
   points="101.35,81.189 85.449,85.447 89.711,69.549 105.611,65.289 "
   id="polygon170"
   transform="translate(-36.073,-17.643)" />
<polygon
   fill="#00dfe0"
   points="211.507,110.701 195.606,114.959 199.868,99.061 215.769,94.801 "
   id="polygon172"
   transform="translate(-36.073,-17.643)" />
<polygon
   fill="#00dfe0"
   points="81.189,101.352 65.289,105.609 69.551,89.711 85.451,85.451 "
   id="polygon174"
   transform="translate(-36.073,-17.643)" />
<polygon
   fill="#00dfe0"
   points="108.729,108.729 92.828,112.988 97.09,97.09 112.99,92.828 "
   id="polygon176"
   transform="translate(-36.073,-17.643)" />
<polygon
   fill="#00dfe0"
   points="136.268,116.108 120.367,120.366 124.629,104.467 140.529,100.207 "
   id="polygon178"
   transform="translate(-36.073,-17.643)" />
<polygon
   fill="#00dfe0"
   points="163.807,123.485 147.906,127.745 152.168,111.846 168.068,107.584 "
   id="polygon180"
   transform="translate(-36.073,-17.643)" />
<polygon
   fill="#00dfe0"
   points="191.347,130.864 175.445,135.122 179.707,119.224 195.608,114.963 "
   id="polygon182"
   transform="translate(-36.073,-17.643)" />
<polygon
   fill="#00dfe0"
   points="218.886,138.241 210.937,140.37 213.067,132.421 221.017,130.292 "
   id="polygon184"
   transform="translate(-36.073,-17.643)" />
<polygon
   fill="#00dfe0"
   points="246.431,145.63 238.481,147.759 240.612,139.81 248.562,137.679 "
   id="polygon186"
   transform="translate(-36.073,-17.643)" />
<polygon
   fill="#00dfe0"
   points="334.454,92.527 326.505,94.656 328.636,86.707 336.585,84.576 "
   id="polygon188"
   transform="translate(-36.073,-17.643)" />
<polygon
   fill="#00dfe0"
   points="292.157,30.066 284.206,32.195 286.337,24.246 294.288,22.115 "
   id="polygon190"
   transform="translate(-36.073,-17.643)" />
<polygon
   fill="#00dfe0"
   points="239.046,118.079 223.146,122.339 227.407,106.439 243.308,102.178 "
   id="polygon192"
   transform="translate(-36.073,-17.643)" />
<polygon
   fill="#00dfe0"
   points="286.747,105.299 270.847,109.557 275.108,93.658 291.009,89.398 "
   id="polygon194"
   transform="translate(-36.073,-17.643)" />
<polygon
   fill="#00dfe0"
   points="266.585,125.458 250.685,129.716 254.946,113.816 270.847,109.557 "
   id="polygon196"
   transform="translate(-36.073,-17.643)" />
<polygon
   fill="#00dfe0"
   points="161.834,20.711 153.885,22.84 156.016,14.891 163.965,12.762 "
   id="polygon198"
   transform="translate(-36.073,-17.643)" />
<polygon
   fill="#00dfe0"
   points="114.135,33.49 106.184,35.619 108.314,27.67 116.266,25.541 "
   id="polygon200"
   transform="translate(-36.073,-17.643)" />
<polygon
   fill="#00dfe0"
   points="134.295,13.33 130.32,14.395 131.387,10.42 135.361,9.355 "
   id="polygon202"
   transform="translate(-36.073,-17.643)" />
<polygon
   fill="#00dfe0"
   points="86.596,26.111 82.619,27.176 83.686,23.201 87.66,22.137 "
   id="polygon204"
   transform="translate(-36.073,-17.643)" />
<polygon
   fill="#00dfe0"
   points="59.055,18.734 55.08,19.799 56.146,15.824 60.121,14.76 "
   id="polygon206"
   transform="translate(-36.073,-17.643)" />
<polygon
   fill="#00dfe0"
   points="3.977,3.975 0,5.039 1.066,1.064 5.041,0 "
   id="polygon208"
   transform="translate(-36.073,-17.643)" />
<polygon
   fill="#00dfe0"
   points="11.354,31.514 7.377,32.578 8.443,28.604 12.418,27.539 "
   id="polygon210"
   transform="translate(-36.073,-17.643)" />
<polygon
   fill="#00dfe0"
   points="26.111,86.59 22.135,87.654 23.201,83.68 27.176,82.615 "
   id="polygon212"
   transform="translate(-36.073,-17.643)" />
<polygon
   fill="#00dfe0"
   points="33.49,114.129 29.514,115.194 30.58,111.219 34.555,110.154 "
   id="polygon214"
   transform="translate(-36.073,-17.643)" />
<polygon
   fill="#00dfe0"
   points="61.029,121.513 57.055,122.577 58.121,118.603 62.096,117.538 "
   id="polygon216"
   transform="translate(-36.073,-17.643)" />
<polygon
   fill="#00dfe0"
   points="88.57,128.733 84.594,129.798 85.66,125.823 89.635,124.759 "
   id="polygon218"
   transform="translate(-36.073,-17.643)" />
<polygon
   fill="#00dfe0"
   points="116.109,136.272 112.135,137.337 113.201,133.362 117.176,132.298 "
   id="polygon220"
   transform="translate(-36.073,-17.643)" />
<polygon
   fill="#00dfe0"
   points="198.729,158.409 194.753,159.474 195.819,155.499 199.794,154.435 "
   id="polygon222"
   transform="translate(-36.073,-17.643)" />
<polygon
   fill="#00dfe0"
   points="237.077,15.307 233.101,16.371 234.167,12.396 238.142,11.332 "
   id="polygon224"
   transform="translate(-36.073,-17.643)" />
<polygon
   fill="#00dfe0"
   points="264.618,22.688 260.642,23.752 261.708,19.777 265.683,18.713 "
   id="polygon226"
   transform="translate(-36.073,-17.643)" />
<polygon
   fill="#00dfe0"
   points="327.077,64.986 323.101,66.051 324.167,62.076 328.142,61.012 "
   id="polygon228"
   transform="translate(-36.073,-17.643)" />
<polygon
   fill="#00dfe0"
   points="314.294,112.686 310.317,113.75 311.384,109.775 315.358,108.711 "
   id="polygon230"
   transform="translate(-36.073,-17.643)" />
<polygon
   fill="#00dfe0"
   points="38.893,38.893 30.941,41.021 33.072,33.072 41.023,30.943 "
   id="polygon232"
   transform="translate(-36.073,-17.643)" />
<polygon
   fill="#00dfe0"
   points="66.434,46.117 58.482,48.246 60.613,40.297 68.564,38.168 "
   id="polygon234"
   transform="translate(-36.073,-17.643)" />
<polygon
   fill="#00dfe0"
   points="26.111,61.031 18.16,63.16 20.291,55.211 28.242,53.08 "
   id="polygon236"
   transform="translate(-36.073,-17.643)" />
<polygon
   fill="#00dfe0"
   points="46.271,66.43 38.32,68.559 40.451,60.609 48.402,58.48 "
   id="polygon238"
   transform="translate(-36.073,-17.643)" />
<polygon
   fill="#00dfe0"
   points="143.648,143.651 135.699,145.78 137.83,137.831 145.779,135.7 "
   id="polygon240"
   transform="translate(-36.073,-17.643)" />
<polygon
   fill="#00dfe0"
   points="53.65,93.971 45.699,96.1 47.83,88.15 55.781,86.021 "
   id="polygon242"
   transform="translate(-36.073,-17.643)" />
<polygon
   fill="#00dfe0"
   points="141.672,40.869 125.771,45.129 130.033,29.23 145.934,24.969 "
   id="polygon244"
   transform="translate(-36.073,-17.643)" />
<polygon
   fill="#00dfe0"
   points="189.374,28.09 181.424,30.219 183.556,22.27 191.505,20.139 "
   id="polygon246"
   transform="translate(-36.073,-17.643)" />
<polygon
   fill="#00dfe0"
   points="169.211,48.248 153.311,52.506 157.572,36.607 173.473,32.348 "
   id="polygon248"
   transform="translate(-36.073,-17.643)" />
<polygon
   fill="#00dfe0"
   points="216.913,35.467 208.964,37.596 211.095,29.646 219.044,27.518 "
   id="polygon250"
   transform="translate(-36.073,-17.643)" />
<polygon
   fill="#00dfe0"
   points="196.751,55.625 180.85,59.885 185.112,43.986 201.013,39.725 "
   id="polygon252"
   transform="translate(-36.073,-17.643)" />
<polygon
   fill="#00dfe0"
   points="244.452,42.846 228.552,47.104 232.813,31.205 248.714,26.945 "
   id="polygon254"
   transform="translate(-36.073,-17.643)" />
<polygon
   fill="#00dfe0"
   points="224.29,63.004 208.39,67.262 212.651,51.363 228.552,47.104 "
   id="polygon256"
   transform="translate(-36.073,-17.643)" />
<polygon
   fill="#00dfe0"
   points="271.991,50.223 256.091,54.482 260.353,38.584 276.253,34.322 "
   id="polygon258"
   transform="translate(-36.073,-17.643)" />
<polygon
   fill="#00dfe0"
   points="299.53,57.602 283.63,61.859 287.892,45.961 303.792,41.701 "
   id="polygon260"
   transform="translate(-36.073,-17.643)" />
<polygon
   fill="#00dfe0"
   points="279.368,77.76 263.468,82.018 267.729,66.119 283.63,61.859 "
   id="polygon262"
   transform="translate(-36.073,-17.643)" />
<polygon
   fill="#00dfe0"
   points="306.907,85.137 291.007,89.396 295.269,73.498 311.169,69.236 "
   id="polygon264"
   transform="translate(-36.073,-17.643)" />
<polygon
   fill="#4472db"
   points="93.973,53.652 105.613,65.293 89.713,69.553 78.072,57.912 "
   id="polygon266"
   transform="translate(-36.073,-17.643)" />
<polygon
   fill="#4472db"
   points="73.811,73.811 85.451,85.451 69.551,89.711 57.91,78.07 "
   id="polygon268"
   transform="translate(-36.073,-17.643)" />
<polygon
   fill="#4472db"
   points="156.428,95.945 168.068,107.584 152.168,111.844 140.527,100.203 "
   id="polygon270"
   transform="translate(-36.073,-17.643)" />
<polygon
   fill="#4472db"
   points="183.968,103.322 195.608,114.963 179.707,119.224 168.066,107.582 "
   id="polygon272"
   transform="translate(-36.073,-17.643)" />
<polygon
   fill="#4472db"
   points="211.507,110.701 223.147,122.341 207.247,126.601 195.606,114.959 "
   id="polygon274"
   transform="translate(-36.073,-17.643)" />
<polygon
   fill="#4472db"
   points="81.189,101.352 92.83,112.99 76.93,117.251 65.289,105.609 "
   id="polygon276"
   transform="translate(-36.073,-17.643)" />
<polygon
   fill="#4472db"
   points="108.729,108.729 120.369,120.37 104.469,124.63 92.828,112.988 "
   id="polygon278"
   transform="translate(-36.073,-17.643)" />
<polygon
   fill="#4472db"
   points="136.268,116.108 147.908,127.747 132.008,132.007 120.367,120.366 "
   id="polygon280"
   transform="translate(-36.073,-17.643)" />
<polygon
   fill="#4472db"
   points="163.807,123.485 175.447,135.126 159.547,139.386 147.906,127.745 "
   id="polygon282"
   transform="translate(-36.073,-17.643)" />
<polygon
   fill="#4472db"
   points="191.347,130.864 202.987,142.503 187.087,146.763 175.445,135.122 "
   id="polygon284"
   transform="translate(-36.073,-17.643)" />
<polygon
   fill="#4472db"
   points="218.886,138.241 224.706,144.062 216.757,146.19 210.937,140.37 "
   id="polygon286"
   transform="translate(-36.073,-17.643)" />
<polygon
   fill="#4472db"
   points="246.431,145.63 252.251,151.448 244.302,153.579 238.481,147.759 "
   id="polygon288"
   transform="translate(-36.073,-17.643)" />
<polygon
   fill="#4472db"
   points="334.454,92.527 340.274,98.346 332.325,100.477 326.505,94.656 "
   id="polygon290"
   transform="translate(-36.073,-17.643)" />
<polygon
   fill="#4472db"
   points="292.157,30.066 297.978,35.885 290.026,38.016 284.206,32.195 "
   id="polygon292"
   transform="translate(-36.073,-17.643)" />
<polygon
   fill="#4472db"
   points="239.046,118.079 250.687,129.72 234.786,133.979 223.146,122.339 "
   id="polygon294"
   transform="translate(-36.073,-17.643)" />
<polygon
   fill="#4472db"
   points="286.747,105.299 298.388,116.938 282.487,121.198 270.847,109.557 "
   id="polygon296"
   transform="translate(-36.073,-17.643)" />
<polygon
   fill="#4472db"
   points="266.585,125.458 278.226,137.097 262.325,141.356 250.685,129.716 "
   id="polygon298"
   transform="translate(-36.073,-17.643)" />
<polygon
   fill="#4472db"
   points="161.834,20.711 167.654,26.531 159.705,28.66 153.885,22.84 "
   id="polygon300"
   transform="translate(-36.073,-17.643)" />
<polygon
   fill="#4472db"
   points="114.135,33.49 119.955,39.311 112.004,41.439 106.184,35.619 "
   id="polygon302"
   transform="translate(-36.073,-17.643)" />
<polygon
   fill="#4472db"
   points="134.295,13.33 137.205,16.24 133.23,17.305 130.32,14.395 "
   id="polygon304"
   transform="translate(-36.073,-17.643)" />
<polygon
   fill="#4472db"
   points="86.596,26.111 89.506,29.021 85.529,30.086 82.619,27.176 "
   id="polygon306"
   transform="translate(-36.073,-17.643)" />
<polygon
   fill="#4472db"
   points="59.055,18.734 61.965,21.645 57.99,22.709 55.08,19.799 "
   id="polygon308"
   transform="translate(-36.073,-17.643)" />
<polygon
   fill="#4472db"
   points="3.977,3.975 6.887,6.885 2.91,7.949 0,5.039 "
   id="polygon310"
   transform="translate(-36.073,-17.643)" />
<polygon
   fill="#4472db"
   points="11.354,31.514 14.264,34.424 10.287,35.488 7.377,32.578 "
   id="polygon312"
   transform="translate(-36.073,-17.643)" />
<polygon
   fill="#4472db"
   points="26.111,86.59 29.021,89.5 25.045,90.564 22.135,87.654 "
   id="polygon314"
   transform="translate(-36.073,-17.643)" />
<polygon
   fill="#4472db"
   points="33.49,114.129 36.4,117.04 32.424,118.104 29.514,115.194 "
   id="polygon316"
   transform="translate(-36.073,-17.643)" />
<polygon
   fill="#4472db"
   points="61.029,121.513 63.939,124.423 59.965,125.487 57.055,122.577 "
   id="polygon318"
   transform="translate(-36.073,-17.643)" />
<polygon
   fill="#4472db"
   points="88.57,128.733 91.48,131.644 87.504,132.708 84.594,129.798 "
   id="polygon320"
   transform="translate(-36.073,-17.643)" />
<polygon
   fill="#4472db"
   points="116.109,136.272 119.02,139.183 115.045,140.247 112.135,137.337 "
   id="polygon322"
   transform="translate(-36.073,-17.643)" />
<polygon
   fill="#4472db"
   points="198.729,158.409 201.64,161.319 197.663,162.384 194.753,159.474 "
   id="polygon324"
   transform="translate(-36.073,-17.643)" />
<polygon
   fill="#4472db"
   points="237.077,15.307 239.987,18.217 236.011,19.281 233.101,16.371 "
   id="polygon326"
   transform="translate(-36.073,-17.643)" />
<polygon
   fill="#4472db"
   points="264.618,22.688 267.528,25.598 263.552,26.662 260.642,23.752 "
   id="polygon328"
   transform="translate(-36.073,-17.643)" />
<polygon
   fill="#4472db"
   points="327.077,64.986 329.987,67.896 326.011,68.961 323.101,66.051 "
   id="polygon330"
   transform="translate(-36.073,-17.643)" />
<polygon
   fill="#4472db"
   points="314.294,112.686 317.204,115.597 313.228,116.661 310.317,113.75 "
   id="polygon332"
   transform="translate(-36.073,-17.643)" />
<polygon
   fill="#4472db"
   points="38.893,38.893 44.713,44.713 36.762,46.842 30.941,41.021 "
   id="polygon334"
   transform="translate(-36.073,-17.643)" />
<polygon
   fill="#4472db"
   points="66.434,46.117 72.254,51.938 64.303,54.066 58.482,48.246 "
   id="polygon336"
   transform="translate(-36.073,-17.643)" />
<polygon
   fill="#4472db"
   points="26.111,61.031 31.932,66.85 23.98,68.98 18.16,63.16 "
   id="polygon338"
   transform="translate(-36.073,-17.643)" />
<polygon
   fill="#4472db"
   points="46.271,66.43 52.092,72.25 44.141,74.379 38.32,68.559 "
   id="polygon340"
   transform="translate(-36.073,-17.643)" />
<polygon
   fill="#4472db"
   points="143.648,143.651 149.469,149.47 141.52,151.601 135.699,145.78 "
   id="polygon342"
   transform="translate(-36.073,-17.643)" />
<polygon
   fill="#4472db"
   points="53.65,93.971 59.471,99.791 51.52,101.92 45.699,96.1 "
   id="polygon344"
   transform="translate(-36.073,-17.643)" />
<polygon
   fill="#4472db"
   points="141.672,40.869 153.313,52.51 137.412,56.77 125.771,45.129 "
   id="polygon346"
   transform="translate(-36.073,-17.643)" />
<polygon
   fill="#4472db"
   points="189.374,28.09 195.194,33.908 187.245,36.039 181.424,30.219 "
   id="polygon348"
   transform="translate(-36.073,-17.643)" />
<polygon
   fill="#4472db"
   points="169.211,48.248 180.852,59.887 164.951,64.146 153.311,52.506 "
   id="polygon350"
   transform="translate(-36.073,-17.643)" />
<polygon
   fill="#4472db"
   points="216.913,35.467 222.733,41.287 214.784,43.416 208.964,37.596 "
   id="polygon352"
   transform="translate(-36.073,-17.643)" />
<polygon
   fill="#4472db"
   points="196.751,55.625 208.392,67.266 192.491,71.525 180.85,59.885 "
   id="polygon354"
   transform="translate(-36.073,-17.643)" />
<polygon
   fill="#4472db"
   points="244.452,42.846 256.093,54.484 240.192,58.744 228.552,47.104 "
   id="polygon356"
   transform="translate(-36.073,-17.643)" />
<polygon
   fill="#4472db"
   points="271.991,50.223 283.632,61.863 267.731,66.123 256.091,54.482 "
   id="polygon358"
   transform="translate(-36.073,-17.643)" />
<polygon
   fill="#4472db"
   points="299.53,57.602 311.171,69.24 295.271,73.5 283.63,61.859 "
   id="polygon360"
   transform="translate(-36.073,-17.643)" />
<polygon
   fill="#4472db"
   points="306.907,85.137 318.548,96.777 302.647,101.037 291.007,89.396 "
   id="polygon362"
   transform="translate(-36.073,-17.643)" />























<polygon
   fill="#4472db"
   points="94.012,102.851 101.336,102.851 101.336,79.317 98.127,75.787 98.127,101.262 90.656,101.262 "
   id="polygon410"
   transform="translate(-36.073,-17.643)" />
<polygon
   fill="#4472db"
   points="121.286,101.262 124.042,102.851 126.727,102.851 126.727,62.999 124.025,60.173 124.025,101.262 "
   id="polygon412"
   transform="translate(-36.073,-17.643)" />
<polygon
   fill="#4472db"
   points="93.146,60.173 116.555,85.922 116.555,84.642 96.879,62.999 "
   id="polygon414"
   transform="translate(-36.073,-17.643)" />
<polygon
   fill="#ffffff"
   points="116.555,84.642 116.555,85.922 93.146,60.173 90.656,60.173 90.656,101.262 98.127,101.262 98.127,75.787 101.336,79.317 121.286,101.262 124.025,101.262 124.025,60.173 116.555,60.173 "
   id="polygon416"
   transform="translate(-36.073,-17.643)" />
<path
   fill="none"
   d="m 106.017,56.926 c -2.035,2.417 -3.051,5.416 -3.051,8.997 0,3.58 1.016,6.58 3.051,8.996 0.207,0.246 0.425,0.471 0.645,0.692 1.544,0.914 3.319,1.375 5.33,1.375 3.238,0 5.875,-1.209 7.91,-3.625 2.035,-2.418 3.053,-5.416 3.053,-8.997 0,-3.581 -1.018,-6.579 -3.053,-8.997 -0.207,-0.246 -0.425,-0.471 -0.645,-0.692 -1.543,-0.914 -3.318,-1.375 -5.33,-1.375 -3.238,0 -5.875,1.209 -7.91,3.626 z"
   id="path418" />
<path
   fill="#4472db"
   d="m 127.013,51.555 c -1.014,-1.115 -2.108,-2.049 -3.265,-2.841 0.438,0.401 0.866,0.826 1.281,1.281 3.5,3.85 5.25,8.639 5.25,14.368 0,5.729 -1.75,10.519 -5.25,14.368 -3.5,3.849 -7.854,5.773 -13.061,5.773 -3.695,0 -6.951,-0.991 -9.786,-2.933 3.262,2.993 7.184,4.491 11.771,4.491 5.207,0 9.561,-1.924 13.061,-5.773 3.5,-3.849 5.25,-8.639 5.25,-14.367 -0.001,-5.728 -1.751,-10.517 -5.251,-14.367 z"
   id="path420" />
<path
   fill="#4472db"
   d="m 106.017,74.92 c -2.035,-2.416 -3.051,-5.416 -3.051,-8.996 0,-3.581 1.016,-6.58 3.051,-8.997 2.035,-2.417 4.672,-3.626 7.91,-3.626 2.011,0 3.786,0.461 5.33,1.375 -1.941,-1.949 -4.375,-2.933 -7.314,-2.933 -3.238,0 -5.875,1.209 -7.91,3.625 -2.035,2.418 -3.051,5.416 -3.051,8.997 0,3.581 1.016,6.579 3.051,8.997 0.784,0.931 1.662,1.678 2.629,2.25 -0.22,-0.222 -0.438,-0.446 -0.645,-0.692 z"
   id="path422" />
<path
   fill="#ffffff"
   d="m 125.029,78.732 c 3.5,-3.85 5.25,-8.639 5.25,-14.368 0,-5.729 -1.75,-10.519 -5.25,-14.368 -0.415,-0.456 -0.843,-0.88 -1.281,-1.281 -3.264,-2.992 -7.189,-4.492 -11.78,-4.492 -5.209,0 -9.563,1.925 -13.063,5.773 -3.5,3.85 -5.248,8.639 -5.248,14.368 0,5.712 1.748,10.497 5.248,14.354 1.017,1.121 2.115,2.06 3.276,2.854 2.835,1.942 6.091,2.933 9.786,2.933 5.209,0 9.562,-1.923 13.062,-5.773 z m -20.996,-5.371 c -2.035,-2.418 -3.051,-5.416 -3.051,-8.997 0,-3.581 1.016,-6.579 3.051,-8.997 2.035,-2.416 4.672,-3.625 7.91,-3.625 2.938,0 5.373,0.984 7.314,2.933 0.22,0.221 0.438,0.446 0.645,0.692 2.035,2.418 3.053,5.416 3.053,8.997 0,3.581 -1.018,6.579 -3.053,8.997 -2.035,2.416 -4.672,3.625 -7.91,3.625 -2.011,0 -3.786,-0.461 -5.33,-1.375 -0.967,-0.572 -1.845,-1.319 -2.629,-2.25 z"
   id="path424" />
<polygon
   fill="#4472db"
   points="174.044,102.851 181.515,102.851 181.515,79.904 179.49,77.43 179.49,101.262 172.02,101.262 "
   id="polygon426"
   transform="translate(-36.073,-17.643)" />
<polygon
   fill="#4472db"
   points="201.906,81.489 201.902,77.43 190.696,91.127 192.721,92.717 "
   id="polygon428"
   transform="translate(-36.073,-17.643)" />
<path
   fill="#4472db"
   d="m 173.326,42.502 c 0,0.028 0,41.117 0,41.117 h -7.471 l 2.023,1.589 h 7.471 V 44.119 Z"
   id="path430" />
<polygon
   fill="#4472db"
   points="174.51,60.173 190.696,80.443 191.291,79.699 176.968,61.762 "
   id="polygon432"
   transform="translate(-36.073,-17.643)" />
<path
   fill="#ffffff"
   d="m 173.326,42.53 c -0.008,0 -2.49,0 -2.49,0 L 155.218,62.056 154.623,62.8 138.437,42.53 h -2.49 v 41.089 h 7.471 V 59.787 l 2.024,2.474 9.182,11.223 0.362,-0.442 10.844,-13.255 0.004,4.059 0.022,19.772 h 7.471 V 42.53 Z"
   id="path434" />
<polygon
   fill="none"
   points="229.072,86.745 237.677,86.745 233.432,74.755 "
   id="polygon436"
   transform="translate(-36.073,-17.643)" />
<polygon
   fill="#4472db"
   points="213.272,101.262 215.296,102.851 223.265,102.851 225.506,96.552 240.981,96.552 240.416,94.962 223.482,94.962 221.241,101.262 "
   id="polygon438"
   transform="translate(-36.073,-17.643)" />
<polygon
   fill="#4472db"
   points="235.685,60.173 250.6,101.234 242.79,101.261 244.681,102.851 252.624,102.851 237.708,61.762 "
   id="polygon440"
   transform="translate(-36.073,-17.643)" />
<polygon
   fill="#4472db"
   points="226.471,86.745 229.072,86.745 233.432,74.755 232.148,71.13 "
   id="polygon442"
   transform="translate(-36.073,-17.643)" />
<path
   fill="#ffffff"
   d="m 199.612,42.53 h -7.471 L 177.2,83.619 h 7.969 l 2.241,-6.299 h 16.934 l 0.565,1.59 1.615,4.541 c 0.002,0.007 0.061,0.168 0.061,0.168 h 0.133 l 7.81,-0.027 z m -3.537,10.957 1.283,3.625 4.245,11.989 h -8.604 -2.602 z"
   id="path444" />
<path
   fill="none"
   d="m 227.89,52.337 v 23.092 h 4.899 c 6.624,-0.018 9.944,-4.136 9.961,-12.354 -0.008,-4.358 -0.956,-7.548 -2.823,-9.596 -1.401,-0.757 -3.104,-1.142 -5.114,-1.142 z"
   id="path446" />
<path
   fill="#4472db"
   d="m 227.89,52.337 h 6.923 c 2.011,0 3.713,0.385 5.114,1.142 -1.653,-1.813 -4.026,-2.731 -7.138,-2.731 h -6.923 v 24.681 h 2.023 V 52.337 Z"
   id="path448" />
<path
   fill="#4472db"
   d="m 244.928,46.672 c 3.521,3.394 5.293,8.853 5.293,16.402 0,13.697 -5.812,20.544 -17.432,20.544 h -14.394 l 2.023,1.589 h 14.394 c 11.621,0 17.432,-6.847 17.432,-20.543 0,-8.874 -2.449,-14.86 -7.316,-17.992 z"
   id="path450" />
<path
   fill="#ffffff"
   d="m 250.221,63.074 c 0,-7.549 -1.771,-13.008 -5.293,-16.402 -2.875,-2.772 -6.914,-4.17 -12.139,-4.17 h -14.394 v 41.117 h 14.394 c 11.62,0 17.432,-6.847 17.432,-20.545 z M 225.866,50.748 h 6.923 c 3.111,0 5.484,0.918 7.138,2.731 1.867,2.047 2.815,5.238 2.823,9.596 -0.017,8.219 -3.337,12.336 -9.961,12.354 h -4.899 -2.023 V 50.748 Z"
   id="path452" />
</svg>
