<?xml version="1.0" standalone="no"?>
<!DOCTYPE svg PUBLIC "-//W3C//DTD SVG 20010904//EN"
 "http://www.w3.org/TR/2001/REC-SVG-20010904/DTD/svg10.dtd">
<svg version="1.0" xmlns="http://www.w3.org/2000/svg"
 width="1000.000000pt" height="1000.000000pt" viewBox="0 0 1000.000000 1000.000000"
 preserveAspectRatio="xMidYMid meet">
<metadata>
Created by potrace 1.16, written by Peter Selinger 2001-2019
</metadata>
<g transform="translate(0.000000,1000.000000) scale(0.100000,-0.100000)"
fill="#000000" stroke="none">
<path d="M0 8940 l0 -1060 1060 0 1060 0 0 1060 0 1060 -1060 0 -1060 0 0
-1060z m1820 0 l0 -760 -760 0 -760 0 0 753 c0 415 3 757 7 760 3 4 345 7 760
7 l753 0 0 -760z"/>
<path d="M610 8935 l0 -455 453 2 452 3 3 453 2 452 -455 0 -455 0 0 -455z"/>
<path d="M2420 9850 l0 -150 305 0 305 0 0 150 0 150 -305 0 -305 0 0 -150z"/>
<path d="M4240 9695 l0 -305 -455 0 -455 0 0 -300 0 -300 -150 0 -150 0 0 150
0 150 -150 0 -150 0 0 150 0 150 -155 0 -155 0 2 -452 3 -453 153 -3 152 -3 0
-149 0 -150 -155 0 -155 0 0 -150 0 -150 155 0 155 0 0 -150 0 -149 -152 -3
-153 -3 -3 -302 -2 -303 305 0 305 0 0 150 0 150 -150 0 -150 0 0 155 0 155
150 0 150 0 0 150 0 150 150 0 150 0 0 -150 0 -150 155 0 155 0 0 150 0 150
150 0 150 0 0 300 0 300 -150 0 -150 0 0 305 0 305 150 0 150 0 0 -150 0 -150
305 0 305 0 0 -155 0 -155 150 0 150 0 0 -300 0 -300 -150 0 -150 0 0 150 0
150 -155 0 -155 0 0 -150 0 -150 155 0 155 0 0 -150 0 -149 -152 -3 -153 -3
-3 -152 -3 -153 -149 0 -150 0 0 -150 0 -150 150 0 150 0 0 -150 0 -150 -452
-2 -453 -3 -3 -302 -2 -303 -150 0 -150 0 0 150 0 150 -910 0 -910 0 0 -150 0
-150 -150 0 -150 0 0 150 0 150 -150 0 -150 0 0 -150 0 -150 150 0 150 0 0
-150 0 -150 150 0 149 0 3 -152 3 -153 153 -3 152 -3 0 -299 0 -300 -155 0
-155 0 0 150 0 150 -150 0 -150 0 0 150 0 150 -150 0 -149 0 -3 153 -3 152
-152 3 -153 3 0 299 0 300 -150 0 -150 0 0 -300 0 -300 150 0 150 0 0 -305 0
-305 -150 0 -150 0 0 -150 0 -150 150 0 150 0 0 -150 0 -150 -150 0 -150 0 0
-305 0 -305 150 0 150 0 0 305 0 305 305 0 305 0 0 150 0 150 150 0 150 0 0
-455 0 -455 -150 0 -150 0 0 -305 0 -305 -150 0 -149 0 -3 153 -3 152 -302 3
-303 2 0 -155 0 -155 305 0 305 0 0 -150 0 -150 -155 0 -155 0 0 -150 0 -150
-150 0 -150 0 0 -155 0 -155 150 0 150 0 0 155 0 155 155 0 155 0 0 -155 0
-155 300 0 300 0 0 455 0 454 153 3 152 3 0 150 0 150 -153 3 -152 3 0 149 0
150 305 0 305 0 0 -150 0 -150 150 0 150 0 0 -155 0 -155 -150 0 -150 0 0
-150 0 -150 -150 0 -150 0 0 -150 0 -150 150 0 150 0 0 -155 0 -155 300 0 300
0 0 305 0 305 155 0 155 0 0 150 0 150 150 0 150 0 0 155 0 155 150 0 150 0 0
-305 0 -305 -150 0 -150 0 0 -150 0 -150 -150 0 -150 0 0 -155 0 -155 150 0
150 0 0 155 0 155 150 0 149 0 3 -152 3 -153 153 -3 152 -3 0 -449 0 -450
-155 0 -155 0 0 300 0 300 -150 0 -150 0 0 -300 0 -300 -150 0 -150 0 0 -155
0 -155 -155 0 -155 0 0 -605 0 -605 155 0 155 0 0 150 0 150 150 0 150 0 0
-150 0 -150 150 0 150 0 0 455 0 455 455 0 455 0 0 -150 0 -150 305 0 305 0 0
-305 0 -305 455 0 455 0 0 150 0 150 150 0 150 0 0 155 0 155 305 0 305 0 0
150 0 150 -155 0 -155 0 0 150 0 150 1365 0 1365 0 0 -150 0 -150 -150 0 -150
0 0 -150 0 -150 455 0 455 0 0 -155 0 -155 150 0 150 0 0 155 0 155 -150 0
-150 0 0 300 0 299 -152 3 -153 3 -3 453 -2 452 -300 0 -300 0 0 305 0 305
150 0 150 0 0 150 0 150 150 0 150 0 0 -150 0 -150 155 0 155 0 0 -155 0 -155
150 0 150 0 0 155 0 155 -150 0 -150 0 0 150 0 150 150 0 150 0 0 305 0 305
-305 0 -305 0 0 150 0 150 -150 0 -150 0 2 303 3 302 147 3 147 3 3 -153 3
-153 153 -3 152 -3 0 -149 0 -150 150 0 150 0 0 150 0 150 -150 0 -150 0 0
155 0 155 150 0 150 0 0 300 0 300 -305 0 -305 0 2 303 3 302 153 3 152 3 0
149 0 150 -305 0 -305 0 0 150 0 150 -302 2 -303 3 -3 153 -3 152 156 0 155 0
0 150 0 151 -152 -3 -153 -3 -3 -147 -3 -148 -149 0 -150 0 0 300 0 300 -150
0 -150 0 0 155 0 155 -150 0 -150 0 0 300 0 300 -155 0 -155 0 0 -150 0 -150
-150 0 -150 0 0 150 0 150 -150 0 -150 0 0 150 0 150 -302 2 -303 3 -3 153 -3
152 151 0 150 0 0 300 0 300 305 0 305 0 0 -150 0 -150 -150 0 -150 0 0 -150
0 -150 150 0 150 0 0 150 0 150 150 0 150 0 0 455 0 455 -150 0 -150 0 0 -150
0 -150 -305 0 -305 0 0 150 0 150 -300 0 -300 0 0 -150 0 -150 150 0 150 0 0
-155 0 -155 -150 0 -150 0 0 -150 0 -150 150 0 150 0 0 -150 0 -150 -150 0
-149 0 -3 -152 -3 -153 -152 -3 -153 -3 0 306 0 305 -150 0 -150 0 0 -305 0
-305 -150 0 -150 0 0 155 0 155 -150 0 -150 0 0 150 0 150 -155 0 -155 0 0
150 0 149 153 3 152 3 3 303 2 302 -155 0 -155 0 0 -305z m-600 -1515 l0 -300
-155 0 -155 0 0 150 0 150 -150 0 -150 0 0 -150 0 -150 -150 0 -150 0 0 150 0
150 150 0 150 0 0 150 0 150 305 0 305 0 0 -300z m1810 0 l0 -300 -150 0 -150
0 0 -305 0 -305 150 0 150 0 0 -150 0 -150 -150 0 -150 0 0 -150 0 -150 150 0
150 0 0 -155 0 -155 -150 0 -150 0 0 155 0 155 -300 0 -300 0 0 150 0 150
-155 0 -155 0 0 150 0 149 153 3 152 3 3 153 3 152 149 0 150 0 0 150 0 150
150 0 150 0 0 300 0 300 150 0 150 0 0 -300z m610 -150 l0 -150 150 0 150 0 0
150 0 150 155 0 155 0 0 -300 0 -300 455 0 455 0 0 -155 0 -155 150 0 150 0 0
-455 0 -455 150 0 150 0 0 -150 0 -150 305 0 305 0 0 -150 0 -150 150 0 150 0
0 -305 0 -305 -305 0 -305 0 0 -150 0 -150 -150 0 -150 0 0 150 0 150 150 0
150 0 0 150 0 149 -147 3 -148 3 -3 153 -3 152 -149 0 -149 0 -3 -152 -3 -153
-147 -3 -148 -3 0 306 0 305 150 0 150 0 0 150 0 150 -150 0 -149 0 -3 153 -3
152 -152 3 -153 3 0 299 0 300 -150 0 -150 0 0 -455 0 -455 -150 0 -150 0 0
-150 0 -150 300 0 300 0 0 -455 0 -455 155 0 155 0 0 -150 0 -150 -155 0 -155
0 0 150 0 150 -300 0 -300 0 0 150 0 150 -155 0 -155 0 0 -300 0 -300 -150 0
-150 0 0 -305 0 -305 455 0 455 0 0 155 0 155 150 0 150 0 0 -155 0 -155 155
0 155 0 0 -300 0 -300 150 0 150 0 0 150 0 150 150 0 150 0 0 -150 0 -150 150
0 150 0 0 300 0 300 -150 0 -151 0 3 153 3 152 300 0 300 0 3 -302 2 -303 150
0 150 0 0 -150 0 -150 150 0 150 0 0 -155 0 -155 -150 0 -150 0 0 -150 0 -150
-150 0 -150 0 0 -150 0 -150 -305 0 -305 0 0 150 0 150 -150 0 -150 0 0 -150
0 -150 -150 0 -150 0 0 150 0 150 150 0 150 0 0 150 0 150 -302 2 -303 3 -3
303 -2 302 -150 0 -150 0 0 -305 0 -305 -302 2 -303 3 -3 153 -3 152 -149 0
-150 0 0 150 0 150 -150 0 -150 0 0 150 0 150 -305 0 -305 0 0 -300 0 -300
150 0 150 0 0 -155 0 -155 305 0 305 0 0 -150 0 -150 -305 0 -305 0 0 -150 0
-150 305 0 305 0 0 -155 0 -155 150 0 150 0 0 305 0 305 455 0 455 0 0 -305 0
-305 -150 0 -150 0 0 -300 0 -300 -150 0 -150 0 0 300 0 300 -155 0 -155 0 0
-150 0 -150 -150 0 -150 0 0 150 0 150 -302 2 -303 3 -3 153 -3 152 -149 0
-150 0 0 -305 0 -305 -150 0 -150 0 0 -150 0 -150 300 0 300 0 0 150 0 150
155 0 155 0 0 -300 0 -300 150 0 150 0 0 150 0 150 150 0 150 0 0 -305 0 -305
-150 0 -150 0 0 -300 0 -300 -150 0 -150 0 0 -155 0 -156 -152 3 -153 3 -3
153 -3 152 -149 0 -150 0 0 150 0 150 -150 0 -150 0 0 150 0 150 -305 0 -305
0 0 155 0 155 -150 0 -150 0 0 -155 0 -155 -150 0 -150 0 0 155 0 155 150 0
150 0 0 150 0 150 150 0 150 0 0 150 0 150 -150 0 -150 0 0 150 0 150 150 0
150 0 0 -150 0 -150 305 0 305 0 0 150 0 150 -150 0 -150 0 0 155 0 155 -155
0 -155 0 0 150 0 150 -300 0 -300 0 0 455 0 455 -155 0 -155 0 0 305 0 305
-150 0 -150 0 0 -155 0 -155 -150 0 -150 0 0 155 0 155 -455 0 -455 0 0 -155
0 -155 150 0 150 0 0 -150 0 -150 -150 0 -150 0 0 150 0 150 -150 0 -150 0 0
155 0 155 150 0 150 0 0 150 0 150 150 0 150 0 0 150 0 150 -150 0 -150 0 0
150 0 150 -150 0 -150 0 0 305 0 305 300 0 300 0 0 -150 0 -150 -150 0 -150 0
0 -155 0 -155 150 0 150 0 0 -150 0 -150 150 0 150 0 2 303 3 302 303 3 302 2
0 -155 0 -155 -150 0 -150 0 0 -150 0 -150 300 0 300 0 0 305 0 305 155 0 155
0 0 150 0 150 150 0 150 0 0 -150 0 -150 455 0 455 0 0 150 0 150 455 0 455 0
0 455 0 455 150 0 150 0 0 150 0 150 -150 0 -150 0 0 155 0 155 150 0 150 0 0
150 0 150 -150 0 -150 0 0 150 0 150 150 0 150 0 0 -150z m-5150 -3030 l0
-150 -305 0 -305 0 0 150 0 150 305 0 305 0 0 -150z m8790 -300 l0 -150 -155
0 -155 0 0 150 0 150 155 0 155 0 0 -150z m-6670 -910 l0 -150 -305 0 -305 0
0 150 0 150 305 0 305 0 0 -150z m-610 -610 l0 -150 -150 0 -150 0 0 -150 0
-150 -150 0 -150 0 0 150 0 150 150 0 150 0 0 150 0 150 150 0 150 0 0 -150z
m-1510 -300 l0 -150 -150 0 -150 0 0 150 0 150 150 0 150 0 0 -150z m7570
-910 l0 -450 -450 0 -450 0 0 450 0 450 450 0 450 0 0 -450z m-5150 -910 l0
-150 -150 0 -150 0 0 -150 0 -150 -150 0 -150 0 0 300 0 300 300 0 300 0 0
-150z"/>
<path d="M6367 7573 c-4 -3 -7 -141 -7 -305 l0 -298 155 0 155 0 0 305 0 305
-148 0 c-82 0 -152 -3 -155 -7z"/>
<path d="M6060 6210 l0 -150 -150 0 -150 0 0 -150 0 -150 -455 0 -455 0 0
-155 0 -155 -305 0 -305 0 0 -150 0 -150 -150 0 -150 0 0 -150 0 -150 -150 0
-150 0 0 150 0 150 -155 0 -155 0 0 -300 0 -299 153 -3 152 -3 3 -302 2 -303
150 0 150 0 0 455 0 455 305 0 305 0 0 -150 0 -149 -152 -3 -153 -3 -3 -152
-3 -153 156 0 155 0 0 -150 0 -150 -155 0 -155 0 0 -150 0 -150 -150 0 -150 0
0 -155 0 -155 150 0 150 0 0 155 0 155 155 0 155 0 0 150 0 150 150 0 150 0 0
305 0 305 300 0 300 0 0 150 0 150 155 0 155 0 0 150 0 150 150 0 150 0 0 455
0 455 150 0 150 0 0 -150 0 -150 155 0 155 0 0 150 0 150 -155 0 -155 0 0 150
0 150 -150 0 -150 0 0 -150z m-300 -910 l0 -150 -155 0 -155 0 0 -150 0 -150
-150 0 -150 0 0 150 0 150 -150 0 -150 0 0 -150 0 -150 -150 0 -150 0 0 150 0
150 150 0 150 0 0 150 0 150 455 0 455 0 0 -150z"/>
<path d="M3640 5605 l0 -155 150 0 150 0 0 155 0 155 -150 0 -150 0 0 -155z"/>
<path d="M2420 5000 l0 -150 155 0 155 0 0 -150 0 -150 150 0 150 0 0 150 0
150 -150 0 -150 0 0 150 0 150 -155 0 -155 0 0 -150z"/>
<path d="M6360 3790 l0 -150 155 0 155 0 0 150 0 150 -155 0 -155 0 0 -150z"/>
<path d="M7880 3485 l0 -155 150 0 150 0 0 155 0 155 -150 0 -150 0 0 -155z"/>
<path d="M8790 3485 l0 -155 150 0 150 0 0 155 0 155 -150 0 -150 0 0 -155z"/>
<path d="M4850 3180 l0 -150 -150 0 -150 0 0 -150 0 -150 150 0 150 0 0 150 0
150 300 0 300 0 0 150 0 150 -300 0 -300 0 0 -150z"/>
<path d="M4240 1670 l0 -150 155 0 156 0 -3 148 -3 147 -152 3 -153 3 0 -151z"/>
<path d="M4850 1365 l0 -155 150 0 150 0 0 155 0 155 -150 0 -150 0 0 -155z"/>
<path d="M5457 1513 c-4 -3 -7 -141 -7 -305 l0 -298 155 0 155 0 0 305 0 305
-148 0 c-82 0 -152 -3 -155 -7z"/>
<path d="M7880 1970 l0 -150 150 0 150 0 0 150 0 150 -150 0 -150 0 0 -150z"/>
<path d="M4850 9695 l0 -305 150 0 150 0 0 305 0 305 -150 0 -150 0 0 -305z"/>
<path d="M7880 8940 l0 -1060 1060 0 1060 0 0 1060 0 1060 -1060 0 -1060 0 0
-1060z m1818 -2 l2 -758 -760 0 -760 0 0 760 0 760 758 -2 757 -3 3 -757z"/>
<path d="M8482 8938 l3 -453 453 -3 452 -2 0 455 0 455 -455 0 -455 0 2 -452z"/>
<path d="M7272 8638 l3 -153 150 0 150 0 0 150 0 150 -153 3 -153 3 3 -153z"/>
<path d="M0 7425 l0 -155 150 0 150 0 0 -150 0 -150 155 0 155 0 0 -150 0
-150 150 0 150 0 0 300 0 300 150 0 150 0 0 -150 0 -150 305 0 305 0 0 -150 0
-150 150 0 150 0 0 150 0 150 -150 0 -150 0 0 150 0 150 150 0 150 0 0 155 0
155 -150 0 -150 0 0 -155 0 -155 -305 0 -305 0 0 155 0 155 -605 0 -605 0 0
-155z"/>
<path d="M8484 7567 c-2 -7 -3 -76 -2 -152 l3 -140 303 -3 302 -2 0 -300 0
-300 150 0 149 0 3 -152 3 -153 150 0 150 0 3 153 3 152 149 0 150 0 0 455 0
455 -150 0 -150 0 0 -155 0 -156 -152 3 -153 3 -3 153 -3 152 -450 0 c-359 0
-451 -3 -455 -13z"/>
<path d="M0 1060 l0 -1060 1060 0 1060 0 0 1060 0 1060 -1060 0 -1060 0 0
-1060z m1820 0 l0 -760 -757 2 -758 3 -3 758 -2 757 760 0 760 0 0 -760z"/>
<path d="M610 1065 l0 -455 455 0 455 0 -2 453 -3 452 -452 3 -453 2 0 -455z"/>
<path d="M6970 455 l0 -455 150 0 150 0 0 150 0 149 153 3 152 3 0 150 0 150
-152 3 -153 3 0 149 0 150 -150 0 -150 0 0 -455z"/>
<path d="M7880 605 l0 -305 150 0 150 0 0 -150 0 -150 605 0 605 0 0 150 0
150 -605 0 -605 0 0 305 0 305 -150 0 -150 0 0 -305z"/>
<path d="M3640 150 l0 -150 150 0 150 0 0 150 0 150 -150 0 -150 0 0 -150z"/>
<path d="M4240 150 l0 -150 155 0 155 0 0 150 0 150 -155 0 -155 0 0 -150z"/>
<path d="M6360 150 l0 -150 155 0 155 0 0 150 0 150 -155 0 -155 0 0 -150z"/>
</g>
</svg>
