<?xml version="1.0" standalone="no"?>
<!DOCTYPE svg PUBLIC "-//W3C//DTD SVG 20010904//EN"
 "http://www.w3.org/TR/2001/REC-SVG-20010904/DTD/svg10.dtd">
<svg version="1.0" xmlns="http://www.w3.org/2000/svg"
 width="1000.000000pt" height="1000.000000pt" viewBox="0 0 1000.000000 1000.000000"
 preserveAspectRatio="xMidYMid meet">
<metadata>
Created by potrace 1.16, written by Peter Selinger 2001-2019
</metadata>
<g transform="translate(0.000000,1000.000000) scale(0.100000,-0.100000)"
fill="#000000" stroke="none">
<path d="M0 8795 l0 -1205 1205 0 1205 0 0 1205 0 1205 -1205 0 -1205 0 0
-1205z m2068 -3 l2 -862 -862 2 -863 3 -3 850 c-1 468 0 856 3 863 3 10 181
12 862 10 l858 -3 3 -863z"/>
<path d="M690 8795 l0 -515 515 0 515 0 0 515 0 515 -515 0 -515 0 0 -515z"/>
<path d="M2760 9830 l0 -170 345 0 345 0 0 170 0 170 -345 0 -345 0 0 -170z"/>
<path d="M5170 9830 l0 -170 -170 0 -170 0 0 -175 0 -175 -520 0 -520 0 0
-345 0 -345 -170 0 -170 0 -2 173 -3 172 -172 3 -173 2 0 170 0 170 -170 0
-170 0 0 -515 0 -515 170 0 170 0 0 -175 0 -175 -170 0 -170 0 0 -170 0 -170
170 0 170 0 0 -175 0 -175 -170 0 -170 0 0 -690 0 -690 -520 0 -520 0 0 -515
0 -515 520 0 520 0 0 -175 0 -175 345 0 345 0 0 -170 0 -170 345 0 345 0 0
-175 0 -175 -520 0 -520 0 0 -170 0 -170 -345 0 -345 0 0 170 0 170 175 0 175
0 0 175 0 175 -175 0 -175 0 0 170 0 170 -345 0 -345 0 0 -170 0 -170 345 0
345 0 0 -175 0 -175 -515 0 -515 0 0 175 0 175 -172 -2 -173 -3 -3 -342 -2
-343 -170 0 -170 0 0 -175 0 -175 -175 0 -175 0 0 -170 0 -170 175 0 175 0 0
170 0 170 345 0 345 0 0 -170 0 -170 170 0 170 0 0 170 0 170 175 0 175 0 0
-170 0 -170 515 0 515 0 0 -690 0 -690 -170 0 -170 0 0 -690 0 -690 345 0 345
0 0 170 0 170 -172 2 -173 3 -3 343 -2 342 175 0 175 0 0 -170 0 -170 170 0
170 0 2 -173 3 -172 173 -3 172 -2 0 -170 0 -170 170 0 170 0 0 170 0 170
-170 0 -170 0 0 345 0 345 170 0 170 0 0 -170 0 -170 175 0 175 0 0 -345 0
-345 345 0 345 0 0 170 0 170 170 0 170 0 0 175 0 175 -515 0 -515 0 0 170 0
170 515 0 515 0 0 175 0 175 345 0 345 0 0 -175 0 -175 -170 0 -170 0 0 -170
0 -170 345 0 345 0 -2 -173 -3 -172 -342 -3 -343 -2 0 -170 0 -170 860 0 860
0 0 170 0 170 175 0 175 0 0 -170 0 -170 170 0 170 0 0 170 0 170 173 2 172 3
3 172 2 173 170 0 170 0 0 -345 0 -345 175 0 175 0 0 345 0 345 170 0 170 0 0
345 0 345 -170 0 -170 0 0 515 0 515 170 0 170 0 0 175 0 175 -345 0 -345 0 0
515 0 515 173 2 172 3 3 518 2 517 170 0 170 0 0 345 0 345 -345 0 -345 0 0
170 0 170 -345 0 -345 0 0 -170 0 -170 173 -2 172 -3 3 -342 2 -343 170 0 170
0 0 -345 0 -345 -170 0 -170 0 0 170 0 170 -345 0 -345 0 0 175 0 175 170 0
170 0 0 170 0 170 -170 0 -170 0 0 -170 0 -170 -175 0 -175 0 0 -520 0 -520
-170 0 -170 0 -2 -342 -3 -343 -517 -3 -518 -2 0 175 0 175 -515 0 -515 0 0
345 0 345 170 0 170 0 0 345 0 345 175 0 175 0 0 170 0 170 170 0 170 0 0
-345 0 -345 -170 0 -170 0 0 -170 0 -170 170 0 170 0 0 170 0 170 173 2 172 3
3 172 2 173 170 0 170 0 0 -175 0 -175 173 2 172 3 3 343 2 342 170 0 170 0 0
175 0 175 175 0 175 0 -2 343 -3 342 -517 3 -518 2 0 170 0 170 690 0 690 0 0
175 0 175 345 0 345 0 0 170 0 170 -515 0 -515 0 0 -170 0 -170 -345 0 -345 0
0 170 0 170 -175 0 -175 0 0 -170 0 -170 -345 0 -345 0 0 170 0 170 175 0 175
0 0 175 0 175 170 0 170 0 0 345 0 345 -170 0 -170 0 0 170 0 170 170 0 170 0
0 175 0 175 -170 0 -170 0 0 -175 0 -175 -175 0 -175 0 2 518 3 517 170 0 170
0 3 -172 2 -173 170 0 170 0 0 345 0 345 -515 0 -515 0 0 -515 0 -515 -172 -2
-173 -3 -3 -172 -2 -173 345 0 345 0 0 -170 0 -170 -515 0 -515 0 0 -520 0
-520 -175 0 -175 0 0 520 0 520 -170 0 -170 0 0 170 0 170 -175 0 -175 0 0
-170 0 -170 -170 0 -170 0 0 345 0 345 690 0 690 0 0 345 0 345 170 0 170 0 0
170 0 170 -345 0 -345 0 0 -170z m-1030 -1895 l0 -345 170 0 170 0 0 345 0
345 175 0 175 0 0 -345 0 -345 -175 0 -175 0 0 -345 0 -345 518 -2 517 -3 3
-517 2 -518 170 0 170 0 0 175 0 175 173 -2 172 -3 3 -172 2 -173 170 0 170 0
0 345 0 345 -345 0 -345 0 0 175 0 175 345 0 345 0 0 -175 0 -175 175 0 175 0
0 -345 0 -345 515 0 515 0 0 -170 0 -170 -170 0 -170 0 0 -175 0 -175 -175 0
-175 0 0 175 0 175 -170 0 -170 0 0 170 0 170 -175 0 -175 0 0 -170 0 -170
-170 0 -170 0 0 170 0 170 -175 0 -175 0 0 -170 0 -170 -170 0 -170 0 0 170 0
170 -175 0 -175 0 0 -345 0 -345 345 0 345 0 0 -170 0 -170 -345 0 -345 0 0
-175 0 -175 175 0 175 0 0 -170 0 -170 -175 0 -175 0 0 -690 0 -690 175 0 175
0 0 -520 0 -520 170 0 170 0 0 520 0 520 345 0 345 0 0 -520 0 -520 175 0 175
0 0 -170 0 -170 170 0 170 0 2 -173 3 -172 170 0 170 0 3 172 2 173 170 0 170
0 0 -520 0 -520 -170 0 -170 0 0 175 0 175 -345 0 -345 0 0 345 0 345 -175 0
-175 0 0 170 0 170 -345 0 -345 0 0 -170 0 -170 -170 0 -170 0 0 170 0 170
-345 0 -345 0 0 -345 0 -345 -175 0 -175 0 0 345 0 345 -170 0 -170 0 0 -170
0 -170 -175 0 -175 0 0 -175 0 -175 -170 0 -170 0 0 175 0 175 170 0 170 0 0
345 0 345 520 0 520 0 0 170 0 170 170 0 170 0 0 175 0 175 -170 0 -170 0 0
170 0 170 -172 2 -173 3 -3 343 -2 342 175 0 175 0 0 175 0 175 -345 0 -345 0
0 170 0 170 -345 0 -345 0 0 175 0 175 -175 0 -175 0 2 343 3 342 173 3 172 2
0 170 0 170 -175 0 -175 0 0 345 0 345 175 0 175 0 0 175 0 175 -175 0 -175 0
0 170 0 170 175 0 175 0 0 175 0 175 -175 0 -175 0 0 170 0 170 175 0 175 0 0
175 0 175 345 0 345 0 0 -345z m2070 -175 l0 -170 -175 0 -175 0 0 170 0 170
175 0 175 0 0 -170z m690 0 l0 -170 -175 0 -175 0 0 170 0 170 175 0 175 0 0
-170z m-4490 -2415 l0 -175 -170 0 -170 0 0 175 0 175 170 0 170 0 0 -175z
m6210 -1380 l0 -175 175 0 175 0 -2 -342 -3 -343 -342 -3 -343 -2 0 175 0 175
170 0 170 0 0 170 0 170 -170 0 -170 0 0 175 0 175 170 0 170 0 0 -175z
m-6900 -690 l0 -175 -170 0 -170 0 0 175 0 175 170 0 170 0 0 -175z m690 0 l0
-175 -170 0 -170 0 0 175 0 175 170 0 170 0 0 -175z m1730 0 l0 -175 -172 2
-173 3 -3 173 -2 172 175 0 175 0 0 -175z m-690 -345 l0 -170 345 0 345 0 -2
-172 -3 -173 -342 -3 -343 -2 0 175 0 175 -175 0 -175 0 0 170 0 170 175 0
175 0 0 -170z m4828 -687 l-3 -518 -517 -3 -518 -2 0 520 0 520 520 0 520 0
-2 -517z m1032 -178 l0 -345 -170 0 -170 0 0 -170 0 -170 345 0 345 0 0 -345
0 -345 -175 0 -175 0 0 170 0 170 -170 0 -170 0 0 -170 0 -170 -345 0 -345 0
0 170 0 170 345 0 345 0 0 175 0 175 -175 0 -175 0 0 170 0 170 175 0 175 0 0
345 0 345 170 0 170 0 0 -345z"/>
<path d="M3450 7760 l0 -170 170 0 170 0 0 -175 0 -175 175 0 175 0 0 175 0
175 -175 0 -175 0 0 170 0 170 -170 0 -170 0 0 -170z"/>
<path d="M4830 6380 l0 -170 -517 -2 -518 -3 -3 -342 -2 -343 -170 0 -170 0 0
-175 0 -175 345 0 345 0 0 -345 0 -345 345 0 345 0 0 175 0 175 170 0 170 0 0
170 0 170 -170 0 -170 0 0 175 0 175 -175 0 -175 0 0 -175 0 -175 -170 0 -170
0 0 345 0 345 515 0 515 0 0 345 0 345 -170 0 -170 0 0 -170z m0 -1380 l0
-170 -175 0 -175 0 0 170 0 170 175 0 175 0 0 -170z"/>
<path d="M7590 2240 l0 -170 170 0 170 0 0 170 0 170 -170 0 -170 0 0 -170z"/>
<path d="M7590 8795 l0 -1205 1205 0 1205 0 0 1205 0 1205 -1205 0 -1205 0 0
-1205z m2065 0 l0 -860 -862 -3 -863 -2 0 858 c0 472 3 862 7 865 3 4 392 6
862 5 l856 -3 0 -860z"/>
<path d="M8280 8795 l0 -515 515 0 515 0 0 515 0 515 -515 0 -515 0 0 -515z"/>
<path d="M0 6550 l0 -690 345 0 345 0 0 -170 0 -170 170 0 170 0 0 170 0 170
-170 0 -170 0 0 175 0 175 -175 0 -175 0 0 170 0 170 175 0 175 0 0 175 0 175
170 0 170 0 0 -345 0 -345 175 0 175 0 0 170 0 170 170 0 170 0 0 175 0 175
-170 0 -170 0 0 170 0 170 -690 0 -690 0 0 -690z"/>
<path d="M2070 7070 l0 -170 170 0 170 0 0 170 0 170 -170 0 -170 0 0 -170z"/>
<path d="M9660 6895 l0 -345 -345 0 -345 0 0 -170 0 -170 345 0 345 0 0 -175
0 -175 170 0 170 0 0 175 0 175 -170 0 -170 0 0 170 0 170 170 0 170 0 0 345
0 345 -170 0 -170 0 0 -345z"/>
<path d="M2070 6380 l0 -170 170 0 170 0 0 170 0 170 -170 0 -170 0 0 -170z"/>
<path d="M340 5000 l0 -170 -170 0 -170 0 0 -175 0 -175 170 0 170 0 0 -345 0
-345 -170 0 -170 0 0 -170 0 -170 170 0 170 0 0 170 0 170 175 0 175 0 0 345
0 345 345 0 345 0 0 175 0 175 -175 0 -175 0 0 170 0 170 -345 0 -345 0 0
-170z m350 -345 l0 -175 -175 0 -175 0 0 175 0 175 175 0 175 0 0 -175z"/>
<path d="M6900 3965 l0 -175 170 0 170 0 0 175 0 175 -170 0 -170 0 0 -175z"/>
<path d="M0 1205 l0 -1205 1205 0 1205 0 0 1205 0 1205 -1205 0 -1205 0 0
-1205z m2068 3 l-3 -863 -860 0 -860 0 -3 850 c-1 468 0 856 3 863 3 9 186 12
865 12 l860 0 -2 -862z"/>
<path d="M690 1205 l0 -515 515 0 515 0 0 515 0 515 -515 0 -515 0 0 -515z"/>
</g>
</svg>
