<?xml version="1.0" encoding="UTF-8" standalone="no"?>
<svg
   role="img"
   aria-label="TU Wien - homepage"
   version="1.1"
   id="tuw-logo"
   x="0px"
   y="0px"
   viewBox="0 0 95 95"
   xml:space="preserve"
   sodipodi:docname="tuwien-logo.svg"
   width="95"
   height="95"
   inkscape:version="1.1.2 (0a00cf5339, 2022-02-04)"
   xmlns:inkscape="http://www.inkscape.org/namespaces/inkscape"
   xmlns:sodipodi="http://sodipodi.sourceforge.net/DTD/sodipodi-0.dtd"
   xmlns="http://www.w3.org/2000/svg"
   xmlns:svg="http://www.w3.org/2000/svg"><defs
   id="defs11" /><sodipodi:namedview
   id="namedview9"
   pagecolor="#ffffff"
   bordercolor="#666666"
   borderopacity="1.0"
   inkscape:pageshadow="2"
   inkscape:pageopacity="0.0"
   inkscape:pagecheckerboard="0"
   showgrid="false"
   inkscape:zoom="7.4123711"
   inkscape:cx="29.342837"
   inkscape:cy="47.488178"
   inkscape:window-width="1866"
   inkscape:window-height="1146"
   inkscape:window-x="1945"
   inkscape:window-y="25"
   inkscape:window-maximized="1"
   inkscape:current-layer="g6" />
<g
   id="g6"
   transform="translate(-1,-1)">
<path
   id="path2"
   style="fill:#262685;fill-opacity:1"
   d="M 9.5,0 C 4.3,0 0,4.3 0,9.5 v 76 C 0,90.7 4.3,95 9.5,95 h 76 C 90.7,95 95,90.8 95,85.5 V 9.5 C 95,4.3 90.7,0 85.5,0 Z M 7.3007812,9.5 H 42.800781 V 19.599609 H 7.3007812 Z M 47.5,9.5 h 10.300781 v 28 c 0,4.1 2.799219,7.799219 6.699219,8.699219 0.2,0 0.3,0.101562 0.5,0.101562 l -0.09961,10.298828 h -0.5 C 54.900391,55.599609 47.5,47.600781 47.5,37.800781 Z m 27.400391,0 h 10.298828 v 28.099609 c 0,9.8 -7.398438,17.900391 -16.898438,18.900391 h -0.40039 V 46.300781 c 0.2,0 0.30039,-0.0016 0.40039,-0.101562 C 72.100781,45.199219 75,41.6 75,37.5 Z M 20.099609,22.599609 h 10.09961 v 33.701172 h -10.09961 z m -11.9003902,46 H 11.5 l 2.599609,10.5 3.09961,-10.5 h 2.40039 l 3.09961,10.5 2.601562,-10.5 h 3.398438 L 24.300781,85.300781 H 21.599609 L 18.5,75.199219 15.400391,85.300781 h -2.701172 z m 28.3007812,0 h 3.300781 V 85.300781 H 36.5 Z m 14.5,0 H 62 V 71.5 h -7.699219 v 3.900391 h 6.59961 v 2.90039 h -6.59961 v 4.09961 H 62 v 2.90039 H 51 Z m 21.5,0 h 2.900391 L 82,78.800781 V 68.599609 h 3.300781 v 16.701172 h -2.90039 L 75.800781,75 V 85.300781 H 72.5 Z"
   transform="translate(1,1)" />

</g>
</svg>
