<?xml version="1.0" standalone="no"?>
<!DOCTYPE svg PUBLIC "-//W3C//DTD SVG 20010904//EN"
 "http://www.w3.org/TR/2001/REC-SVG-20010904/DTD/svg10.dtd">
<svg version="1.0" xmlns="http://www.w3.org/2000/svg"
 width="1000.000000pt" height="1000.000000pt" viewBox="0 0 1000.000000 1000.000000"
 preserveAspectRatio="xMidYMid meet">
<metadata>
Created by potrace 1.16, written by Peter Selinger 2001-2019
</metadata>
<g transform="translate(0.000000,1000.000000) scale(0.100000,-0.100000)"
fill="#000000" stroke="none">
<path d="M0 8600 l0 -1400 1400 0 1400 0 0 1400 0 1400 -1400 0 -1400 0 0
-1400z m2400 0 l0 -1000 -1000 0 -1000 0 0 1000 0 1000 1000 0 1000 0 0 -1000z"/>
<path d="M800 8600 l0 -600 600 0 600 0 0 600 0 600 -600 0 -600 0 0 -600z"/>
<path d="M4000 9800 l0 -200 -200 0 -200 0 0 -200 0 -200 -200 0 -200 0 0
-200 0 -200 200 0 200 0 0 -400 0 -400 200 0 200 0 0 -400 0 -400 200 0 200 0
0 -200 0 -200 200 0 200 0 0 -200 0 -200 -200 0 -200 0 0 -200 0 -200 -200 0
-200 0 0 200 0 200 -200 0 -200 0 0 600 0 600 -200 0 -200 0 0 -400 0 -400
-800 0 -800 0 0 -200 0 -200 -200 0 -200 0 0 200 0 200 -600 0 -600 0 0 -400
0 -400 200 0 200 0 0 -200 0 -200 -200 0 -200 0 0 -200 0 -200 200 0 200 0 0
-400 0 -400 -200 0 -200 0 0 -200 0 -200 200 0 200 0 0 -200 0 -200 -200 0
-200 0 0 -200 0 -200 200 0 200 0 0 200 0 200 200 0 200 0 0 -200 0 -200 400
0 400 0 0 200 0 200 -400 0 -400 0 0 200 0 200 -200 0 -200 0 0 200 0 200 400
0 400 0 0 200 0 200 200 0 200 0 0 -200 0 -200 200 0 200 0 0 -200 0 -200 400
0 400 0 0 -200 0 -200 -400 0 -400 0 0 -200 0 -200 400 0 400 0 0 200 0 200
200 0 200 0 0 200 0 200 400 0 400 0 0 -200 0 -200 -200 0 -200 0 0 -200 0
-200 200 0 200 0 0 -200 0 -200 -400 0 -400 0 0 -600 0 -600 200 0 200 0 0
-200 0 -200 -200 0 -200 0 0 -600 0 -600 200 0 200 0 0 600 0 600 200 0 200 0
0 -600 0 -600 200 0 200 0 0 200 0 200 200 0 200 0 0 -200 0 -200 200 0 200 0
0 200 0 200 -200 0 -200 0 0 200 0 200 -200 0 -200 0 0 200 0 200 200 0 200 0
0 400 0 400 400 0 400 0 0 -400 0 -400 -200 0 -200 0 0 -200 0 -200 200 0 200
0 0 200 0 200 200 0 200 0 0 -200 0 -200 200 0 200 0 0 -200 0 -200 -200 0
-200 0 0 -200 0 -200 400 0 400 0 0 600 0 600 200 0 200 0 0 200 0 200 200 0
200 0 0 -200 0 -200 200 0 200 0 0 -400 0 -400 -200 0 -200 0 0 200 0 200
-200 0 -200 0 0 -200 0 -200 200 0 200 0 0 -200 0 -200 200 0 200 0 0 200 0
200 400 0 400 0 0 200 0 200 -200 0 -200 0 0 200 0 200 400 0 400 0 0 200 0
200 400 0 400 0 0 200 0 200 -200 0 -200 0 0 200 0 200 200 0 200 0 0 400 0
400 -400 0 -400 0 0 -800 0 -800 -200 0 -200 0 0 1000 0 1000 -200 0 -200 0 0
200 0 200 -200 0 -200 0 0 200 0 200 -200 0 -200 0 0 200 0 200 200 0 200 0 0
200 0 200 -200 0 -200 0 0 200 0 200 200 0 200 0 0 200 0 200 -200 0 -200 0 0
400 0 400 -400 0 -400 0 0 -200 0 -200 -200 0 -200 0 0 -200 0 -200 200 0 200
0 0 -200 0 -200 200 0 200 0 0 -200 0 -200 -200 0 -200 0 0 -200 0 -200 -200
0 -200 0 0 -200 0 -200 200 0 200 0 0 -200 0 -200 200 0 200 0 0 -200 0 -200
-400 0 -400 0 0 200 0 200 -200 0 -200 0 0 -200 0 -200 200 0 200 0 0 -200 0
-200 -200 0 -200 0 0 -200 0 -200 -200 0 -200 0 0 200 0 200 -200 0 -200 0 0
200 0 200 -200 0 -200 0 0 200 0 200 -200 0 -200 0 0 200 0 200 200 0 200 0 0
400 0 400 400 0 400 0 0 -200 0 -200 200 0 200 0 0 400 0 400 -200 0 -200 0 0
200 0 200 -200 0 -200 0 0 200 0 200 400 0 400 0 0 200 0 200 200 0 200 0 0
200 0 200 200 0 200 0 0 200 0 200 -200 0 -200 0 0 200 0 200 200 0 200 0 0
200 0 200 -400 0 -400 0 0 200 0 200 200 0 200 0 0 600 0 600 -400 0 -400 0 0
-200 0 -200 -200 0 -200 0 0 -200 0 -200 200 0 200 0 0 200 0 200 200 0 200 0
0 -400 0 -400 -200 0 -200 0 0 -200 0 -200 200 0 200 0 0 -200 0 -200 -400 0
-400 0 0 400 0 400 -200 0 -200 0 0 200 0 200 -200 0 -200 0 0 -200 0 -200
200 0 200 0 0 -400 0 -400 -400 0 -400 0 0 400 0 400 -200 0 -200 0 0 200 0
200 200 0 200 0 0 200 0 200 200 0 200 0 0 200 0 200 -200 0 -200 0 0 -200z
m800 -2400 l0 -200 200 0 200 0 0 200 0 200 200 0 200 0 0 -200 0 -200 200 0
200 0 0 200 0 200 200 0 200 0 0 -200 0 -200 -200 0 -200 0 0 -200 0 -200
-200 0 -200 0 0 200 0 200 -200 0 -200 0 0 -200 0 -200 -200 0 -200 0 0 200 0
200 -200 0 -200 0 0 200 0 200 200 0 200 0 0 -200z m-2000 -1200 l0 -200 -400
0 -400 0 0 -400 0 -400 200 0 200 0 0 200 0 200 400 0 400 0 0 200 0 200 400
0 400 0 0 -200 0 -200 -400 0 -400 0 0 -200 0 -200 400 0 400 0 0 -200 0 -200
-600 0 -600 0 0 -200 0 -200 -400 0 -400 0 0 400 0 400 -400 0 -400 0 0 -200
0 -200 -200 0 -200 0 0 600 0 600 200 0 200 0 0 -200 0 -200 200 0 200 0 0
200 0 200 200 0 200 0 0 200 0 200 400 0 400 0 0 -200z m4400 0 l0 -200 -200
0 -200 0 0 200 0 200 200 0 200 0 0 -200z m-2400 -800 l0 -200 -200 0 -200 0
0 200 0 200 200 0 200 0 0 -200z m2400 -800 l0 -200 -200 0 -200 0 0 200 0
200 200 0 200 0 0 -200z m800 -800 l0 -200 -200 0 -200 0 0 200 0 200 200 0
200 0 0 -200z m-3200 -400 l0 -200 -400 0 -400 0 0 200 0 200 400 0 400 0 0
-200z m3200 -800 l0 -600 -600 0 -600 0 0 600 0 600 600 0 600 0 0 -600z
m-2400 0 l0 -200 -200 0 -200 0 0 200 0 200 200 0 200 0 0 -200z m-1600 -400
l0 -200 -200 0 -200 0 0 200 0 200 200 0 200 0 0 -200z m800 0 l0 -200 -200 0
-200 0 0 200 0 200 200 0 200 0 0 -200z m1600 -200 l0 -400 -200 0 -200 0 0
400 0 400 200 0 200 0 0 -400z m-2000 -600 l0 -200 -200 0 -200 0 0 200 0 200
200 0 200 0 0 -200z"/>
<path d="M2400 5000 l0 -200 200 0 200 0 0 200 0 200 -200 0 -200 0 0 -200z"/>
<path d="M7200 2600 l0 -200 200 0 200 0 0 200 0 200 -200 0 -200 0 0 -200z"/>
<path d="M7200 8600 l0 -1400 1400 0 1400 0 0 1400 0 1400 -1400 0 -1400 0 0
-1400z m2400 0 l0 -1000 -1000 0 -1000 0 0 1000 0 1000 1000 0 1000 0 0 -1000z"/>
<path d="M8000 8600 l0 -600 600 0 600 0 0 600 0 600 -600 0 -600 0 0 -600z"/>
<path d="M8800 6600 l0 -200 200 0 200 0 0 200 0 200 -200 0 -200 0 0 -200z"/>
<path d="M9600 6200 l0 -200 -400 0 -400 0 0 -200 0 -200 200 0 200 0 0 -400
0 -400 200 0 200 0 0 -200 0 -200 -400 0 -400 0 0 400 0 400 -200 0 -200 0 0
-400 0 -400 200 0 200 0 0 -200 0 -200 200 0 200 0 0 -200 0 -200 200 0 200 0
0 200 0 200 200 0 200 0 0 600 0 600 -200 0 -200 0 0 200 0 200 200 0 200 0 0
400 0 400 -200 0 -200 0 0 -200z"/>
<path d="M5200 4200 l0 -200 200 0 200 0 0 200 0 200 -200 0 -200 0 0 -200z"/>
<path d="M0 1400 l0 -1400 1400 0 1400 0 0 1400 0 1400 -1400 0 -1400 0 0
-1400z m2400 0 l0 -1000 -1000 0 -1000 0 0 1000 0 1000 1000 0 1000 0 0 -1000z"/>
<path d="M800 1400 l0 -600 600 0 600 0 0 600 0 600 -600 0 -600 0 0 -600z"/>
<path d="M9600 1000 l0 -200 -200 0 -200 0 0 -400 0 -400 400 0 400 0 0 200 0
200 -200 0 -200 0 0 200 0 200 200 0 200 0 0 200 0 200 -200 0 -200 0 0 -200z"/>
</g>
</svg>
